<svg width="22" height="24" viewBox="0 0 22 24" fill="none" xmlns="http://www.w3.org/2000/svg">
<path d="M8.00684 19.8373C3.00684 21.3373 3.00684 17.3373 1.00684 16.8373M15.0068 22.8373V18.9673C15.0443 18.4905 14.9799 18.0111 14.8179 17.5611C14.6558 17.1111 14.3998 16.7008 14.0668 16.3573C17.2068 16.0073 20.5068 14.8173 20.5068 9.35734C20.5066 7.96117 19.9695 6.61854 19.0068 5.60734C19.4627 4.38585 19.4305 3.03569 18.9168 1.83734C18.9168 1.83734 17.7368 1.48734 15.0068 3.31734C12.7148 2.69616 10.2988 2.69616 8.00684 3.31734C5.27684 1.48734 4.09684 1.83734 4.09684 1.83734C3.58321 3.03569 3.55098 4.38585 4.00684 5.60734C3.03696 6.62604 2.49936 7.9808 2.50684 9.38734C2.50684 14.8073 5.80684 15.9973 8.94684 16.3873C8.61783 16.7273 8.3641 17.1327 8.20214 17.5773C8.04019 18.0218 7.97364 18.4954 8.00684 18.9673V22.8373" stroke="#F2EBEA" stroke-width="2" stroke-linecap="round" stroke-linejoin="round"/>
</svg>
