<svg width="28" height="28" viewBox="0 0 28 28" fill="none" xmlns="http://www.w3.org/2000/svg">
<path d="M21.2164 7.00334H21.2289M8.11548 1.38867H20.5925C24.038 1.38867 26.8311 4.18175 26.8311 7.6272V20.1042C26.8311 23.5497 24.038 26.3428 20.5925 26.3428H8.11548C4.67004 26.3428 1.87695 23.5497 1.87695 20.1042V7.6272C1.87695 4.18175 4.67004 1.38867 8.11548 1.38867ZM19.3448 13.0797C19.4988 14.1181 19.3214 15.1786 18.838 16.1104C18.3545 17.0421 17.5895 17.7978 16.6518 18.2697C15.7141 18.7417 14.6515 18.9059 13.6151 18.7392C12.5787 18.5724 11.6212 18.0831 10.8789 17.3408C10.1367 16.5985 9.64733 15.6411 9.48055 14.6046C9.31378 13.5682 9.47805 12.5056 9.95001 11.5679C10.422 10.6302 11.1776 9.86526 12.1094 9.38177C13.0411 8.89829 14.1017 8.72092 15.1401 8.8749C16.1993 9.03197 17.1799 9.52554 17.937 10.2827C18.6942 11.0399 19.1878 12.0205 19.3448 13.0797Z" stroke="#F2EBEA" stroke-width="2" stroke-linecap="round" stroke-linejoin="round"/>
</svg>
