<svg width="33" height="29" viewBox="0 0 33 29" fill="none" xmlns="http://www.w3.org/2000/svg">
<g filter="url(#filter0_d_447_634)">
<path d="M27.4189 1.90361C26.4613 2.57909 25.4011 3.09572 24.2789 3.43361C23.6767 2.74112 22.8763 2.2503 21.986 2.02754C21.0957 1.80477 20.1584 1.86081 19.301 2.18806C18.4436 2.51532 17.7074 3.09801 17.1919 3.85733C16.6765 4.61664 16.4066 5.51595 16.4189 6.43361V7.43361C14.6616 7.47918 12.9202 7.08942 11.35 6.29906C9.77969 5.50869 8.42926 4.34225 7.41895 2.90361C7.41895 2.90361 3.41895 11.9036 12.4189 15.9036C10.3595 17.3016 7.9061 18.0025 5.41895 17.9036C14.4189 22.9036 25.4189 17.9036 25.4189 6.40361C25.418 6.12506 25.3912 5.8472 25.3389 5.57361C26.3595 4.5671 27.0798 3.29632 27.4189 1.90361Z" stroke="#F2EBEA" stroke-width="2" stroke-linecap="round" stroke-linejoin="round" shape-rendering="crispEdges"/>
</g>
<defs>
<filter id="filter0_d_447_634" x="0.418945" y="0.893555" width="32" height="27.9434" filterUnits="userSpaceOnUse" color-interpolation-filters="sRGB">
<feFlood flood-opacity="0" result="BackgroundImageFix"/>
<feColorMatrix in="SourceAlpha" type="matrix" values="0 0 0 0 0 0 0 0 0 0 0 0 0 0 0 0 0 0 127 0" result="hardAlpha"/>
<feOffset dy="4"/>
<feGaussianBlur stdDeviation="2"/>
<feComposite in2="hardAlpha" operator="out"/>
<feColorMatrix type="matrix" values="0 0 0 0 0 0 0 0 0 0 0 0 0 0 0 0 0 0 0.25 0"/>
<feBlend mode="normal" in2="BackgroundImageFix" result="effect1_dropShadow_447_634"/>
<feBlend mode="normal" in="SourceGraphic" in2="effect1_dropShadow_447_634" result="shape"/>
</filter>
</defs>
</svg>
