<svg width="336" height="113" viewBox="0 0 336 113" fill="none" xmlns="http://www.w3.org/2000/svg">
<path d="M335.225 52.6938C335.266 50.9799 335.235 49.2257 335.139 47.4361C334.371 33.8115 325.129 27.2798 314.483 22.2294C307.476 18.908 299.999 16.1173 292.42 14.4996C231.916 1.52214 170.841 -2.25431 109.159 3.75666C83.0374 6.06197 57.5982 11.8909 32.8516 20.2325C15.1069 26.2081 1.50254 37.6638 0.122392 57.7846C0.0415039 58.9727 0.021282 60.1203 0.0617258 61.2375C0.021282 62.9564 0.0516149 64.7157 0.147669 66.5053C0.916103 80.1299 10.1575 86.6616 20.8044 91.712C27.8113 95.0334 35.2883 97.8241 42.8665 99.4418C103.371 112.424 164.446 116.201 226.128 110.19C252.25 107.884 277.689 102.056 302.435 93.714C320.185 87.7384 333.789 76.2827 335.165 56.1568C335.245 54.9687 335.266 53.8161 335.225 52.6938ZM308.072 81.7982C280.661 93.8505 251.264 98.1577 221.891 101.125C164.37 106.954 107.137 103.724 50.384 92.3338C41.0061 90.4582 32.0478 87.5564 23.6203 83.2946C13.7318 78.2947 6.70463 71.4799 7.99378 58.7553C8.17072 57.0213 8.4235 55.3378 8.74705 53.715H8.63583C8.72177 53.3409 8.81783 52.9668 8.91894 52.5977C11.3759 43.6242 17.8368 36.2685 27.2198 32.1432C54.6306 20.0909 84.0283 15.7837 113.401 12.8161C170.922 6.98712 228.155 10.2176 284.908 21.6076C294.286 23.4832 303.244 26.385 311.672 30.6468C321.56 35.6467 328.587 42.4615 327.298 55.1861C327.081 57.3246 326.747 59.3771 326.307 61.3386H326.373C323.916 70.3121 317.455 77.6678 308.072 81.7931V81.7982ZM71.7839 87.708C65.3028 87.708 59.9187 86.5048 55.6266 84.0984C51.3345 81.692 48.3568 78.2189 46.6935 73.6841C45.0252 69.1494 44.8735 63.7299 46.2284 57.4358C48.3871 47.5018 52.568 39.8174 58.7711 34.3828C64.9742 28.9532 73.6595 26.2334 84.8321 26.2334C88.4721 26.2334 91.6671 26.5114 94.4122 27.0675C97.1574 27.6236 99.7357 28.3617 102.142 29.2919L99.4576 42.3452C94.5791 40.1208 89.1495 39.0136 83.1638 39.0136C77.1781 39.0136 72.4714 40.4949 68.8618 43.4574C65.2522 46.4199 62.7649 51.0811 61.41 57.4358C60.0501 63.7956 60.4242 68.3152 62.5222 70.9997C64.6203 73.6841 69.0034 75.0289 75.6665 75.0289C78.5684 75.0289 81.5005 74.766 84.4631 74.2402C87.4256 73.7145 90.3577 72.8955 93.2596 71.7883L90.4841 84.9326C87.7087 85.7971 84.8068 86.4745 81.7836 86.9699C78.7605 87.4654 75.4239 87.7131 71.7839 87.7131V87.708ZM124.462 87.708C119.402 87.708 115.003 86.7374 111.267 84.791C107.531 82.8447 104.832 80.0995 103.168 76.5506C101.5 73.0016 101.161 68.8511 102.152 64.0989L109.928 27.1585H124.831L117.334 62.7087C116.469 66.8441 116.763 69.9279 118.213 71.9653C119.664 74.0026 122.642 75.0188 127.147 75.0188C131.651 75.0188 135.17 74.0026 137.515 71.9653C139.861 69.9279 141.464 66.8441 142.328 62.7087L149.825 27.1585H164.729L156.954 64.0989C155.225 72.122 151.585 78.0622 146.029 81.9195C140.473 85.7768 133.284 87.708 124.457 87.708H124.462ZM190.659 87.708C184.177 87.708 178.824 86.5352 174.597 84.1894C170.371 81.8437 167.454 78.4363 165.846 73.9571C164.239 69.483 164.117 64.0989 165.477 57.7998C167.636 47.8658 171.958 40.1157 178.439 34.5648C184.921 29.0088 193.682 26.2334 204.733 26.2334C208.373 26.2334 211.614 26.4507 214.455 26.8805C217.291 27.3152 219.945 27.9623 222.417 28.8268L219.642 41.602C217.235 40.6162 214.687 39.9337 212.003 39.5647C209.318 39.1956 206.462 39.0086 203.439 39.0086C197.079 39.0086 192.054 40.5353 188.348 43.5888C184.643 46.6423 182.084 51.3793 180.664 57.7998C179.304 63.9725 179.597 68.386 181.544 71.0401C183.49 73.6942 187.453 75.0188 193.439 75.0188C195.229 75.0188 197.079 74.8823 198.995 74.6042C200.906 74.3262 202.514 73.9723 203.808 73.5375L206.214 62.2436H193.348L195.294 52.8909H220.663L214.369 82.4251C211.962 83.785 208.782 85.0034 204.834 86.0802C200.886 87.157 196.164 87.6979 190.669 87.6979L190.659 87.708ZM248.706 87.708C242.781 87.708 237.826 86.5958 233.848 84.3765C229.869 82.1571 227.104 78.7902 225.562 74.2857C224.02 69.7813 223.989 64.104 225.471 57.2487C227.816 46.2025 231.921 38.2705 237.786 33.4576C243.65 28.6448 251.673 26.2384 261.855 26.2384C267.78 26.2384 272.734 27.3354 276.713 29.5245C280.692 31.7135 283.442 35.0956 284.953 39.6607C286.465 44.2309 286.45 50.0902 284.908 57.2487C282.684 67.6782 278.629 75.3625 272.734 80.3018C266.84 85.241 258.832 87.708 248.711 87.708H248.706ZM251.39 75.0238C256.39 75.0238 260.354 73.5881 263.286 70.7166C266.218 67.845 268.331 63.3558 269.625 57.2437C270.611 52.6129 270.95 48.9729 270.641 46.3188C270.333 43.6647 269.236 41.784 267.355 40.6718C265.47 39.5596 262.709 39.0035 259.069 39.0035C254.009 39.0035 250.025 40.3786 247.128 43.1237C244.227 45.8689 242.068 50.5755 240.647 57.2437C239.783 61.5004 239.505 64.9432 239.813 67.567C240.121 70.1908 241.203 72.0866 243.054 73.2595C244.904 74.4323 247.684 75.0188 251.385 75.0188L251.39 75.0238Z" fill="#E95D29"/>
</svg>
