<svg width="204" height="73" viewBox="0 0 204 73" fill="none" xmlns="http://www.w3.org/2000/svg">
<path d="M203.63 33.7708C203.654 32.6829 203.636 31.5693 203.578 30.4333C203.111 21.7845 197.497 17.6383 191.029 14.4323C186.772 12.3239 182.23 10.5524 177.627 9.52549C140.871 1.28755 103.769 -1.10971 66.298 2.706C50.4295 4.16938 34.9756 7.86956 19.9424 13.1647C9.16271 16.9579 0.898299 24.2299 0.0598803 37.0024C0.0107422 37.7566 -0.00154234 38.4851 0.0230267 39.1943C-0.00154234 40.2854 0.0168844 41.4022 0.0752359 42.5382C0.542048 51.187 6.15608 55.3332 12.6239 58.5392C16.8805 60.6476 21.4227 62.4191 26.0263 63.446C62.7816 71.6872 99.8839 74.0844 137.355 70.2687C153.223 68.8053 168.677 65.1051 183.71 59.81C194.493 56.0168 202.758 48.7448 203.593 35.9691C203.642 35.2149 203.654 34.4832 203.63 33.7708ZM187.135 52.246C170.483 59.8967 152.624 62.6309 134.781 64.5147C99.8379 68.2148 65.0696 66.1642 30.5931 58.9339C24.8961 57.7433 19.4541 55.9012 14.3345 53.1959C8.32737 50.022 4.05849 45.6961 4.84163 37.6186C4.94912 36.5178 5.10268 35.4492 5.29923 34.419H5.23167C5.28387 34.1816 5.34223 33.9441 5.40365 33.7098C6.89622 28.0135 10.8211 23.3442 16.5211 20.7255C33.1728 13.0748 51.0314 10.3406 68.8747 8.45684C103.818 4.75666 138.586 6.80732 173.063 14.0376C178.76 15.2282 184.202 17.0703 189.321 19.7756C195.329 22.9495 199.597 27.2754 198.814 35.3529C198.682 36.7104 198.48 38.0133 198.212 39.2585H198.252C196.76 44.9548 192.835 49.6241 187.135 52.2428V52.246ZM43.5932 55.9975C39.656 55.9975 36.3852 55.2337 33.7778 53.7062C31.1704 52.1786 29.3615 49.9739 28.3511 47.0953C27.3377 44.2166 27.2455 40.7764 28.0686 36.781C29.38 30.475 31.9198 25.597 35.6881 22.1472C39.4564 18.7005 44.7326 16.974 51.5198 16.974C53.731 16.974 55.6719 17.1505 57.3395 17.5035C59.0072 17.8565 60.5735 18.325 62.0353 18.9155L60.4045 27.2016C57.4409 25.7896 54.1425 25.0868 50.5063 25.0868C46.8701 25.0868 44.0108 26.0271 41.8181 27.9076C39.6253 29.7882 38.1143 32.7471 37.2912 36.781C36.4651 40.8181 36.6923 43.6871 37.9669 45.3912C39.2414 47.0953 41.904 47.9489 45.9518 47.9489C47.7146 47.9489 49.4959 47.782 51.2956 47.4483C53.0952 47.1145 54.8765 46.5946 56.6393 45.8918L54.9533 54.2357C53.2672 54.7845 51.5044 55.2145 49.6679 55.529C47.8313 55.8435 45.8044 56.0007 43.5932 56.0007V55.9975ZM75.5944 55.9975C72.5201 55.9975 69.8483 55.3814 67.5787 54.1458C65.3091 52.9103 63.6692 51.1677 62.6587 48.9149C61.6453 46.662 61.4395 44.0273 62.0414 41.0107L66.7648 17.5613H75.8185L71.2641 40.1282C70.7389 42.7533 70.917 44.7109 71.7984 46.0042C72.6798 47.2974 74.4887 47.9425 77.2251 47.9425C79.9615 47.9425 82.099 47.2974 83.524 46.0042C84.949 44.7109 85.9226 42.7533 86.4477 40.1282L91.0022 17.5613H100.056L95.3325 41.0107C94.2822 46.1036 92.071 49.8744 88.6958 52.323C85.3206 54.7716 80.9535 55.9975 75.5913 55.9975H75.5944ZM115.808 55.9975C111.871 55.9975 108.618 55.253 106.051 53.7639C103.483 52.2749 101.711 50.1119 100.735 47.2686C99.758 44.4285 99.6843 41.0107 100.51 37.0121C101.822 30.706 104.448 25.7864 108.385 22.2627C112.322 18.7358 117.644 16.974 124.358 16.974C126.569 16.974 128.538 17.112 130.264 17.3848C131.986 17.6607 133.599 18.0715 135.101 18.6203L133.415 26.7299C131.953 26.1041 130.405 25.6708 128.774 25.4366C127.143 25.2023 125.408 25.0836 123.572 25.0836C119.708 25.0836 116.655 26.0527 114.404 27.9911C112.153 29.9294 110.599 32.9364 109.736 37.0121C108.91 40.9305 109.088 43.7321 110.27 45.4169C111.453 47.1017 113.861 47.9425 117.497 47.9425C118.584 47.9425 119.708 47.8558 120.872 47.6793C122.033 47.5028 123.01 47.2782 123.796 47.0022L125.258 39.8329H117.442L118.624 33.896H134.035L130.211 52.6439C128.749 53.5072 126.818 54.2806 124.419 54.9642C122.021 55.6477 119.152 55.9911 115.814 55.9911L115.808 55.9975ZM151.07 55.9975C147.471 55.9975 144.461 55.2915 142.044 53.8827C139.627 52.4738 137.948 50.3365 137.011 47.4772C136.074 44.6178 136.056 41.0139 136.956 36.6623C138.381 29.6502 140.874 24.615 144.437 21.5599C147.999 18.5048 152.873 16.9772 159.058 16.9772C162.658 16.9772 165.668 17.6736 168.085 19.0632C170.502 20.4527 172.172 22.5997 173.09 25.4975C174.009 28.3986 174 32.1181 173.063 36.6623C171.712 43.2828 169.248 48.1607 165.668 51.2961C162.087 54.4314 157.222 55.9975 151.074 55.9975H151.07ZM152.701 47.9457C155.739 47.9457 158.146 47.0343 159.928 45.2115C161.709 43.3887 162.993 40.5389 163.779 36.659C164.378 33.7194 164.583 31.4088 164.396 29.724C164.209 28.0392 163.542 26.8454 162.4 26.1394C161.254 25.4334 159.577 25.0804 157.366 25.0804C154.292 25.0804 151.872 25.9532 150.112 27.6958C148.349 29.4384 147.038 32.4261 146.175 36.659C145.65 39.3612 145.481 41.5466 145.668 43.2122C145.856 44.8777 146.513 46.0812 147.637 46.8257C148.761 47.5702 150.45 47.9425 152.698 47.9425L152.701 47.9457Z" fill="#070D11"/>
</svg>
