<svg width="174" height="171" viewBox="0 0 174 171" fill="none" xmlns="http://www.w3.org/2000/svg">
<path d="M103.942 67.3179C103.942 69.6229 103.987 71.933 103.926 74.238C103.886 75.7899 103.509 77.2502 101.876 77.9321C99.3417 78.9955 97.0215 77.4843 96.7518 74.6094C96.6907 73.9632 96.7009 73.3017 96.7314 72.6504C96.7721 71.8414 96.416 71.5717 95.6273 71.5971C91.4498 71.7498 87.8117 73.2814 84.4585 75.7237C77.7725 80.5881 73.3711 87.2284 69.5447 94.3774C66.8581 99.3944 63.4998 103.908 58.9764 107.485C57.109 108.96 57.5109 110.838 59.7752 111.652C64.0799 113.204 68.4406 114.588 72.9386 115.463C76.7854 116.211 80.6779 116.745 84.5857 116.929C87.6845 117.071 90.7781 117.483 93.9024 117.259C101.031 116.751 107.147 114.186 111.594 108.436C115.207 103.76 117.385 98.4328 117.456 92.4693C117.543 85.4831 114.576 79.8554 109.167 75.4948C108.577 75.0216 108.251 74.5127 108.261 73.7495C108.287 71.8668 108.251 69.9791 108.277 68.0964C108.292 66.9414 108.536 66.7989 109.605 67.3331C114.159 69.6127 117.695 73.0168 120.412 77.2858C123.14 81.5702 124.58 86.2616 124.692 91.3346C124.778 95.222 123.903 98.9518 122.702 102.626C120.382 109.713 116.016 115.285 110.007 119.585C106.435 122.139 102.329 123.381 98.0137 124.027C91.4345 125.014 84.9063 124.235 78.3678 123.594C70.7354 122.846 63.449 120.694 56.3355 117.967C50.021 115.55 48.5963 106.951 53.7609 102.595C58.3098 98.7635 61.7546 94.1128 64.4717 88.8719C68.3541 81.3921 73.4424 74.9198 80.2607 69.8875C84.7994 66.5343 89.847 64.5651 95.5255 64.3921C96.416 64.3667 96.7518 64.0461 96.7416 63.1557C96.7111 60.4233 96.7416 57.6959 96.7263 54.9635C96.706 52.3227 98.0086 50.552 101.021 50.4502C105.214 50.3077 109.401 50.3332 113.584 50.3535C119.013 50.379 122.783 53.2539 124.31 58.2964C124.569 59.1512 124.681 60.0416 124.651 60.9117C124.575 62.9572 123.587 64.2242 121.303 64.4684C117.324 64.8908 113.309 65.0078 109.534 63.2167C107.956 62.4687 106.521 61.5274 105.326 60.235C105 59.889 104.684 59.1868 104.221 59.3802C103.672 59.604 103.967 60.3469 103.962 60.8558C103.931 63.0081 103.952 65.1605 103.952 67.3179H103.942Z" fill="#F3B946"/>
<path d="M95.2813 110.629C94.2738 110.701 93.246 110.573 92.5997 109.576C91.6024 108.039 92.5489 106.192 94.4722 105.913C95.8766 105.709 97.2861 105.572 98.6345 105.058C103.153 103.353 105.402 99.9796 105.926 95.3086C105.992 94.7336 106.002 94.1586 106.206 93.6091C106.603 92.5303 107.458 91.9655 108.618 92.0622C109.742 92.1538 110.546 92.7237 110.699 93.8635C110.938 95.6291 110.628 97.3642 110.159 99.079C108.394 105.511 102.064 110.461 95.2813 110.629Z" fill="#F3B946"/>
<path d="M35.4837 44.2832L22.183 30.0309L28.5586 24.0827C30.0189 22.7191 31.4894 21.7981 32.9701 21.3096C34.4508 20.8262 35.9569 20.8567 37.4885 21.4012C39.0201 21.9456 40.5975 23.0905 42.2206 24.8307C44.5053 27.2782 45.5738 29.6239 45.4262 31.8627C45.2787 34.1016 44.088 36.259 41.8594 38.335L35.4837 44.2832ZM36.6693 37.2105L38.3535 35.6382C39.0455 34.992 39.534 34.3458 39.824 33.7098C40.109 33.0686 40.1192 32.3563 39.8546 31.5676C39.59 30.7789 38.959 29.8579 37.9668 28.7945C36.9746 27.731 36.0943 27.0187 35.3209 26.6472C34.5475 26.2809 33.8199 26.1994 33.1329 26.4132C32.446 26.6269 31.7337 27.0746 30.9959 27.7615L29.3116 29.3338L36.6642 37.2156L36.6693 37.2105Z" fill="#F3B946"/>
<path d="M59.302 26.8965C56.3762 28.2653 53.8067 28.596 51.5983 27.8938C49.3849 27.1917 47.5379 25.2479 46.0521 22.0678C45.0243 19.8747 44.546 17.9412 44.6121 16.2722C44.6783 14.6032 45.2431 13.148 46.2963 11.9064C47.3547 10.6649 48.8507 9.59127 50.7893 8.68556C52.7279 7.77984 54.5139 7.31681 56.1422 7.30155C57.7704 7.28628 59.2511 7.78493 60.5741 8.80768C61.897 9.82534 63.0724 11.4332 64.0952 13.6263C65.5809 16.8065 65.8812 19.4727 64.9958 21.6251C64.1104 23.7774 62.2125 25.5329 59.302 26.8914V26.8965ZM57.2514 22.5104C58.5693 21.8947 59.3478 21.0806 59.5971 20.0579C59.8465 19.0402 59.5869 17.7173 58.8288 16.089C58.0147 14.3539 57.1446 13.2599 56.2134 12.8172C55.2823 12.3746 54.1577 12.456 52.8399 13.0717C51.522 13.6873 50.7384 14.4964 50.4789 15.4937C50.2245 16.4961 50.4993 17.8648 51.3134 19.5999C52.0766 21.2282 52.9264 22.2713 53.8626 22.7343C54.804 23.1974 55.9336 23.121 57.2463 22.5053L57.2514 22.5104Z" fill="#F3B946"/>
<path d="M70.4555 21.9253L68.0386 2.57962L72.847 1.9792L81.4259 11.3111L80.1487 1.06839L85.7967 0.366211L88.2136 19.7119L83.3747 20.3174L74.8315 11.0109L76.1086 21.2231L70.4606 21.9304L70.4555 21.9253Z" fill="#F3B946"/>
<path d="M90.5136 19.5389L101.647 1.87234L107.554 3.04774L111.085 23.6299L105.264 22.4748L104.471 18.0887L98.7108 16.9438L96.3295 20.699L90.5085 19.544L90.5136 19.5389ZM100.258 13.0818L104.532 13.9316L103.509 7.89687L100.253 13.0818H100.258Z" fill="#F3B946"/>
<path d="M114.724 25.9145L121.471 12.227L116.555 9.80498L118.428 6.00403L133.362 13.3668L131.49 17.1677L126.574 14.7457L119.827 28.4332L114.724 25.9145Z" fill="#F3B946"/>
<path d="M126.254 32.0764L138.985 17.3102L150.174 26.9576L147.329 30.2599L140.45 24.332L138.374 26.7388L144.404 31.939L141.519 35.2871L135.489 30.0869L133.413 32.4937L140.292 38.4215L137.448 41.7238L126.254 32.0764Z" fill="#F3B946"/>
<path d="M148.535 45.6774L152.321 43.52L158.386 54.1748L154.595 56.3323L148.53 45.6774H148.535Z" fill="#F3B946"/>
<path d="M152.692 68.6307L171.967 65.7049L173.275 74.3245C173.575 76.2987 173.504 78.0338 173.071 79.5298C172.633 81.0257 171.758 82.252 170.445 83.2035C169.133 84.1601 167.296 84.8165 164.94 85.1727C161.627 85.6764 159.088 85.2337 157.328 83.8497C155.567 82.4657 154.458 80.2625 154 77.2502L152.692 68.6307ZM157.857 73.6019L158.203 75.8764C158.346 76.8126 158.6 77.581 158.966 78.1814C159.333 78.7818 159.918 79.1889 160.717 79.4178C161.516 79.6417 162.635 79.6468 164.07 79.428C165.505 79.2092 166.594 78.8886 167.337 78.4561C168.079 78.0287 168.553 77.469 168.766 76.7821C168.98 76.0952 169.011 75.2556 168.858 74.2583L168.512 71.9838L157.857 73.6019Z" fill="#F3B946"/>
<path d="M153.624 98.1224C154.137 94.932 155.308 92.6219 157.135 91.1921C158.961 89.7572 161.607 89.3247 165.072 89.8793C167.464 90.2661 169.331 90.953 170.674 91.9452C172.018 92.9374 172.903 94.2197 173.336 95.7919C173.768 97.3642 173.814 99.2062 173.473 101.318C173.132 103.429 172.511 105.165 171.606 106.523C170.7 107.882 169.458 108.818 167.871 109.342C166.283 109.861 164.294 109.932 161.902 109.546C158.437 108.986 156.061 107.734 154.779 105.79C153.496 103.847 153.11 101.287 153.624 98.1224ZM158.407 98.8958C158.173 100.331 158.407 101.435 159.114 102.213C159.816 102.992 161.052 103.521 162.828 103.811C164.721 104.116 166.115 104.01 167.006 103.491C167.896 102.972 168.456 101.995 168.69 100.56C168.924 99.1248 168.695 98.0206 168.013 97.2472C167.331 96.4738 166.044 95.9344 164.151 95.6291C162.375 95.3442 161.037 95.4612 160.126 95.9751C159.216 96.4941 158.646 97.4711 158.412 98.9009L158.407 98.8958Z" fill="#F3B946"/>
<path d="M148.174 115.784C148.744 114.603 149.38 113.53 150.077 112.568C150.774 111.606 151.476 110.833 152.184 110.258L156.412 112.293C155.639 112.929 154.891 113.687 154.173 114.573C153.456 115.458 152.886 116.338 152.463 117.214C152.026 118.124 151.771 118.847 151.705 119.386C151.634 119.926 151.873 120.323 152.423 120.587C152.804 120.77 153.166 120.786 153.512 120.628C153.858 120.47 154.255 120.155 154.702 119.692C155.15 119.223 155.725 118.613 156.427 117.85C157.379 116.852 158.249 116.115 159.032 115.646C159.821 115.173 160.615 114.944 161.414 114.96C162.213 114.975 163.083 115.209 164.029 115.667C165.759 116.501 166.777 117.748 167.082 119.407C167.392 121.071 166.965 123.106 165.8 125.528C165.337 126.49 164.772 127.446 164.116 128.398C163.459 129.344 162.874 130.092 162.37 130.631L158.117 128.581C158.875 127.894 159.511 127.192 160.035 126.479C160.559 125.767 160.986 125.065 161.317 124.373C161.704 123.574 161.968 122.862 162.111 122.236C162.253 121.61 162.065 121.172 161.536 120.918C161.083 120.699 160.635 120.781 160.193 121.162C159.75 121.544 159.068 122.271 158.147 123.35C157.073 124.602 156.081 125.477 155.17 125.965C154.26 126.454 153.379 126.668 152.53 126.591C151.68 126.52 150.8 126.261 149.894 125.823C148.291 125.05 147.304 123.813 146.927 122.109C146.551 120.404 146.968 118.297 148.174 115.789V115.784Z" fill="#F3B946"/>
<path d="M139.392 131.415L152.163 146.146L147.976 149.774L137.83 145.464L140.674 156.098L136.512 159.706L123.74 144.975L128.04 141.246L134.425 148.613L132.578 141.724L134.889 139.719L141.473 142.507L135.087 135.14L139.387 131.41L139.392 131.415Z" fill="#F3B946"/>
<path d="M120.606 145.983L129.429 163.369L124.351 165.944L115.528 148.557L120.606 145.983Z" fill="#F3B946"/>
<path d="M112.5 150.135L117.848 168.885L112.373 170.447L108.221 155.89L99.7793 158.296L98.5836 154.104L112.5 150.135Z" fill="#F3B946"/>
<path d="M89.4908 161.192L89.2415 165.542L76.9991 164.835L77.2484 160.484L89.4908 161.192Z" fill="#F3B946"/>
<path d="M64.4463 147.672L63.5253 149.845C64.4514 150.303 65.2909 150.796 66.0542 151.331C66.8174 151.86 67.428 152.404 67.8961 152.954L66.1203 157.136C65.4487 156.393 64.6549 155.681 63.7339 155.004C62.8129 154.328 61.9072 153.803 61.0168 153.422C60.0856 153.03 59.3478 152.832 58.8034 152.827C58.2538 152.827 57.862 153.101 57.628 153.661C57.3837 154.236 57.5058 154.786 57.9943 155.315C58.4828 155.839 59.3224 156.597 60.5028 157.579C61.5459 158.48 62.3194 159.314 62.8282 160.077C63.337 160.841 63.6016 161.624 63.627 162.423C63.6474 163.222 63.454 164.102 63.047 165.069C61.8004 168.005 59.3732 169.023 55.7656 168.127L54.7989 170.412L50.4789 168.58L51.4253 166.351C50.7486 165.98 50.1176 165.593 49.5274 165.201C48.9372 164.809 48.4436 164.438 48.0416 164.092L49.8276 159.884C50.5502 160.607 51.2829 161.212 52.0156 161.701C52.7534 162.189 53.4708 162.581 54.1781 162.881C54.9973 163.227 55.73 163.441 56.3762 163.517C57.0225 163.593 57.46 163.364 57.689 162.825C57.8875 162.362 57.7857 161.909 57.3939 161.466C57.0021 161.024 56.2439 160.372 55.1194 159.497C53.8168 158.485 52.9009 157.538 52.3616 156.653C51.8273 155.768 51.578 154.897 51.6085 154.048C51.639 153.193 51.8528 152.302 52.2496 151.376C52.7941 150.094 53.6438 149.173 54.804 148.613C55.9641 148.054 57.399 147.927 59.1087 148.237L60.1263 145.84L64.4463 147.672Z" fill="#F3B946"/>
<path d="M47.9907 141.2C48.4385 141.541 48.9473 141.968 49.5071 142.482C50.0668 142.996 50.5959 143.535 51.0895 144.105C51.5831 144.67 51.9749 145.214 52.2649 145.739L49.4969 149.377C49.2476 148.909 48.9168 148.415 48.5098 147.901C48.1027 147.387 47.6651 146.904 47.197 146.451C46.7339 145.993 46.3218 145.632 45.9707 145.367C45.0853 144.695 44.3374 144.339 43.7166 144.304C43.1009 144.263 42.5666 144.543 42.1138 145.138C41.6864 145.698 41.5235 146.217 41.6202 146.685C41.722 147.153 42.1697 147.692 42.9737 148.303L47.6956 151.895L46.1183 153.966L40.5618 160.428L30.5125 152.786L33.4637 149.555L39.3203 154.007L41.1521 151.9L39.3915 150.562C37.5089 149.132 36.4403 147.657 36.1757 146.141C35.9112 144.619 36.3895 143.057 37.6106 141.449C38.7809 139.907 40.2667 139.068 42.0527 138.93C43.8438 138.793 45.8231 139.551 47.9907 141.2Z" fill="#F3B946"/>
<path d="M39.9462 134.692L36.9543 137.475L33.9064 134.193L36.8983 131.41L39.9462 134.692Z" fill="#F3B946"/>
<path d="M30.4616 122.002C31.6217 123.92 32.2221 125.66 32.2629 127.227C32.3036 128.795 31.8456 130.235 30.889 131.542C29.9324 132.85 28.5331 134.061 26.6861 135.18C24.839 136.3 23.1141 136.977 21.5113 137.211C19.9085 137.45 18.4227 137.185 17.054 136.422C15.6852 135.659 14.4182 134.315 13.2581 132.402C11.523 129.537 11.0243 127.044 11.7621 124.922C12.4999 122.801 14.2554 120.903 17.0336 119.223C19.7966 117.555 22.2949 116.883 24.5185 117.209C26.7472 117.539 28.7265 119.137 30.4565 122.002H30.4616ZM26.3146 124.51C25.6379 123.386 24.7882 122.831 23.7705 122.846C22.7528 122.862 21.5113 123.309 20.0408 124.2C18.555 125.095 17.573 125.991 17.0998 126.881C16.6215 127.772 16.7232 128.779 17.4051 129.899C18.0818 131.023 18.9265 131.578 19.939 131.568C20.9465 131.557 22.1931 131.105 23.6789 130.209C25.1494 129.324 26.1213 128.428 26.6098 127.538C27.0932 126.642 26.9965 125.635 26.3197 124.51H26.3146Z" fill="#F3B946"/>
<path d="M22.7834 103.44C23.3176 105.612 23.3736 107.459 22.9411 108.966C22.5137 110.472 21.6487 111.713 20.3461 112.675C19.0435 113.642 17.3491 114.379 15.2476 114.898C13.1512 115.412 11.3042 115.55 9.70139 115.295C8.10367 115.046 6.76036 114.349 5.68164 113.214C4.60293 112.08 3.79389 110.421 3.25962 108.243C2.46076 104.992 2.72535 102.463 4.05848 100.656C5.39161 98.8551 7.63555 97.5627 10.7903 96.7841C13.9247 96.0107 16.5095 96.1125 18.5347 97.0895C20.5649 98.0664 21.9794 100.183 22.7783 103.435L22.7834 103.44ZM18.0818 104.595C17.7663 103.323 17.1252 102.539 16.1482 102.249C15.1713 101.959 13.8534 102.02 12.1845 102.427C10.5003 102.844 9.29433 103.404 8.57688 104.111C7.85943 104.819 7.6559 105.811 7.96628 107.083C8.28176 108.355 8.91779 109.139 9.88457 109.434C10.8513 109.724 12.1743 109.663 13.8636 109.25C15.5275 108.838 16.7283 108.279 17.4559 107.571C18.1836 106.859 18.3922 105.872 18.0818 104.595Z" fill="#F3B946"/>
<path d="M20.9516 83.4172C20.8193 85.6561 20.3257 87.4268 19.4709 88.7447C18.6161 90.0574 17.4254 90.9835 15.8938 91.5229C14.3623 92.0622 12.5254 92.2658 10.368 92.1385C8.21052 92.0113 6.40927 91.589 4.95402 90.8767C3.49877 90.1643 2.42514 89.1059 1.72805 87.6965C1.03095 86.2921 0.751095 84.4705 0.88339 82.2317C1.08183 78.8886 2.08423 76.548 3.89057 75.22C5.69691 73.892 8.22579 73.3221 11.467 73.5154C14.693 73.7037 17.1252 74.5687 18.7738 76.1003C20.4224 77.6318 21.1449 80.0742 20.9516 83.4172ZM16.1177 83.1323C16.194 81.8246 15.8124 80.8833 14.9627 80.3185C14.1129 79.7537 12.8358 79.4178 11.1261 79.3161C9.39101 79.2143 8.07823 79.3924 7.18269 79.8554C6.28715 80.3185 5.79867 81.2038 5.72235 82.5115C5.64603 83.8192 6.02256 84.7605 6.86213 85.3253C7.69661 85.8901 8.98394 86.226 10.714 86.3277C12.4287 86.4295 13.7364 86.2463 14.6421 85.7884C15.5478 85.3253 16.0414 84.44 16.1177 83.1323Z" fill="#F3B946"/>
<path d="M18.1276 62.6265L14.1587 60.8252L19.2267 49.6615L23.1955 51.4628L18.1276 62.6265Z" fill="#F3B946"/>
</svg>
