<svg width="141" height="139" viewBox="0 0 141 139" fill="none" xmlns="http://www.w3.org/2000/svg">
<g clip-path="url(#clip0_118_240)">
<path d="M84.2389 55.2018C84.2389 57.071 84.2727 58.9469 84.2253 60.8161C84.1915 62.0758 83.8873 63.2609 82.569 63.8163C80.5205 64.6763 78.641 63.4505 78.4179 61.1209C78.3706 60.5926 78.3774 60.0576 78.3977 59.5294C78.4315 58.8724 78.1408 58.649 77.5052 58.676C74.1181 58.8047 71.1773 60.0441 68.4595 62.0216C63.0442 65.9699 59.4813 71.3539 56.3781 77.1578C54.2012 81.2279 51.4834 84.8918 47.8191 87.7903C46.3047 88.989 46.636 90.5128 48.4614 91.1697C51.9499 92.4294 55.479 93.5536 59.123 94.2647C62.2396 94.8742 65.3901 95.3076 68.5541 95.4566C71.0623 95.5718 73.5705 95.9036 76.099 95.7275C81.8726 95.3144 86.8282 93.2353 90.4249 88.5692C93.3523 84.7766 95.11 80.4491 95.1709 75.6137C95.2385 69.9452 92.8384 65.3807 88.4575 61.8455C87.9775 61.4595 87.7139 61.0531 87.7274 60.4301C87.7477 58.8995 87.7206 57.3758 87.7409 55.8452C87.7544 54.9106 87.9505 54.7887 88.8158 55.2222C92.5072 57.071 95.3669 59.8341 97.5709 63.3016C99.7817 66.7758 100.944 70.5818 101.039 74.6994C101.107 77.8553 100.397 80.8826 99.4301 83.8624C97.5506 89.6121 94.0148 94.136 89.1471 97.6238C86.2536 99.6961 82.9273 100.705 79.432 101.227C74.1046 102.026 68.8178 101.396 63.5242 100.875C57.3449 100.265 51.4429 98.5177 45.6828 96.31C40.5717 94.346 39.4156 87.3705 43.6005 83.8421C47.285 80.7336 50.0704 76.9614 52.2744 72.7083C55.4181 66.6403 59.5421 61.3918 65.0588 57.308C68.7367 54.5923 72.8201 52.9873 77.4241 52.8451C78.1407 52.8247 78.4179 52.5674 78.4112 51.8428C78.3841 49.6282 78.4112 47.4136 78.3977 45.1991C78.3841 43.0523 79.4388 41.6165 81.8794 41.5353C85.2733 41.4201 88.6671 41.4404 92.0542 41.454C96.4487 41.4743 99.5045 43.8108 100.742 47.9013C100.951 48.592 101.039 49.3167 101.019 50.0278C100.958 51.687 100.16 52.7164 98.3078 52.9128C95.083 53.2514 91.8311 53.353 88.7753 51.8969C87.4975 51.2874 86.3347 50.5222 85.3679 49.4792C85.1042 49.1948 84.8473 48.6259 84.4687 48.7817C84.0225 48.9645 84.2659 49.5673 84.2592 49.9804C84.2321 51.7276 84.2524 53.4749 84.2524 55.2222L84.2389 55.2018Z" fill="#C2CF45"/>
<path d="M77.2213 90.3439C76.41 90.3981 75.5717 90.2965 75.0511 89.4906C74.2466 88.2445 75.0105 86.741 76.5655 86.5175C77.7013 86.355 78.8438 86.2399 79.9391 85.8268C83.5966 84.4452 85.422 81.7024 85.8479 77.9167C85.902 77.4494 85.9087 76.9821 86.071 76.5419C86.3887 75.6683 87.0851 75.2077 88.0248 75.2822C88.9375 75.3567 89.5865 75.8172 89.715 76.7451C89.9043 78.1808 89.6609 79.5827 89.2756 80.9778C87.8423 86.1992 82.7177 90.2152 77.2213 90.3507V90.3439Z" fill="#C2CF45"/>
<path d="M28.788 36.5231L18.0115 24.9628L23.1699 20.1341C24.353 19.0302 25.5429 18.2785 26.7463 17.8857C27.9429 17.4929 29.1666 17.52 30.4038 17.9602C31.641 18.4004 32.9255 19.3282 34.2371 20.7436C36.0895 22.7279 36.9549 24.6309 36.8332 26.4459C36.7115 28.2609 35.7515 30.0149 33.9464 31.7012L28.7812 36.5299L28.788 36.5231ZM29.748 30.787L31.1137 29.5138C31.6748 28.9855 32.0737 28.4641 32.3035 27.9494C32.5334 27.4279 32.5402 26.8522 32.3306 26.2089C32.1142 25.5723 31.6072 24.8205 30.8027 23.9605C29.9981 23.1004 29.2883 22.5179 28.6595 22.22C28.0308 21.922 27.4426 21.8543 26.8882 22.0303C26.3339 22.1996 25.7592 22.5653 25.1575 23.1275L23.7918 24.4007L29.748 30.7937V30.787Z" fill="#C2CF45"/>
<path d="M48.0896 22.4096C45.7233 23.5203 43.641 23.7912 41.8495 23.2155C40.0579 22.6466 38.557 21.0687 37.3536 18.4884C36.5221 16.7073 36.1367 15.1429 36.1908 13.7884C36.2449 12.4339 36.6978 11.2556 37.5564 10.2465C38.415 9.23739 39.6252 8.37053 41.1937 7.63235C42.7622 6.89416 44.2089 6.52168 45.5273 6.50814C46.8456 6.4946 48.0422 6.90094 49.1172 7.72716C50.1854 8.55339 51.1386 9.86045 51.9702 11.6348C53.1736 14.2151 53.417 16.3822 52.7003 18.1227C51.9837 19.87 50.4423 21.2922 48.0896 22.3961V22.4096ZM46.4264 18.8473C47.4946 18.3462 48.1234 17.6825 48.3262 16.8563C48.529 16.0301 48.3194 14.96 47.7042 13.6394C47.0484 12.2308 46.3385 11.3436 45.5881 10.9847C44.8309 10.6257 43.925 10.6934 42.8568 11.1946C41.7886 11.6958 41.1531 12.3527 40.9435 13.1586C40.734 13.9713 40.9638 15.0819 41.6196 16.4906C42.2348 17.8112 42.9244 18.6577 43.6884 19.037C44.4523 19.4094 45.365 19.3485 46.4332 18.8541L46.4264 18.8473Z" fill="#C2CF45"/>
<path d="M57.1218 18.3738L55.168 2.67547L59.0621 2.18786L66.0121 9.75933L64.9777 1.44967L69.5547 0.874023L71.5085 16.5723L67.5941 17.0599L60.6712 9.50876L61.7055 17.7981L57.1286 18.367L57.1218 18.3738Z" fill="#C2CF45"/>
<path d="M73.3408 16.4367L82.3528 2.10645L87.1394 3.05457L90.0059 19.7484L85.2937 18.8138L84.6514 15.2516L79.9866 14.3238L78.0598 17.3713L73.3476 16.4367H73.3408ZM81.2305 11.1949L84.692 11.8857L83.8604 6.9893L81.2238 11.2017L81.2305 11.1949Z" fill="#C2CF45"/>
<path d="M92.9399 21.5973L98.3958 10.4906L94.4138 8.52666L95.9282 5.43848L108.03 11.4049L106.515 14.4931L102.533 12.5291L97.0775 23.6358L92.9399 21.5973Z" fill="#C2CF45"/>
<path d="M102.283 26.5954L112.586 14.6084L121.653 22.4305L119.347 25.1123L113.77 20.3039L112.093 22.2611L116.981 26.4735L114.648 29.1892L109.761 24.9769L108.084 26.9341L113.661 31.7424L111.356 34.4243L102.29 26.6022L102.283 26.5954Z" fill="#C2CF45"/>
<path d="M120.341 37.6271L123.41 35.873L128.325 44.5146L125.256 46.2686L120.341 37.6271Z" fill="#C2CF45"/>
<path d="M123.714 56.2315L139.325 53.8477L140.386 60.8435C140.63 62.4485 140.575 63.8572 140.224 65.0694C139.872 66.2817 139.162 67.2772 138.101 68.056C137.04 68.8281 135.552 69.3631 133.646 69.6543C130.962 70.0606 128.907 69.7085 127.48 68.5843C126.054 67.4601 125.154 65.6789 124.783 63.2341L123.714 56.2383V56.2315ZM127.899 60.2611L128.183 62.1099C128.298 62.8684 128.508 63.4915 128.805 63.9791C129.103 64.4667 129.576 64.7985 130.225 64.9814C130.874 65.1642 131.78 65.1642 132.943 64.9882C134.106 64.8121 134.991 64.548 135.586 64.1958C136.188 63.8504 136.573 63.3967 136.742 62.8413C136.911 62.286 136.938 61.602 136.817 60.7961L136.533 58.9472L127.906 60.2678L127.899 60.2611Z" fill="#C2CF45"/>
<path d="M124.485 80.1507C124.898 77.5636 125.844 75.6877 127.325 74.5229C128.805 73.358 130.948 73.0059 133.754 73.4528C135.694 73.7644 137.202 74.3197 138.291 75.1256C139.379 75.9315 140.096 76.9744 140.447 78.2476C140.799 79.5208 140.833 81.0175 140.562 82.7309C140.285 84.4443 139.785 85.853 139.055 86.9569C138.324 88.0608 137.317 88.8193 136.032 89.2459C134.748 89.6726 133.139 89.7268 131.199 89.4152C128.393 88.9615 126.466 87.9524 125.425 86.3745C124.384 84.7965 124.073 82.7242 124.485 80.1507ZM128.359 80.7737C128.17 81.9386 128.359 82.8325 128.934 83.4691C129.502 84.0989 130.509 84.5324 131.942 84.7626C133.477 85.0064 134.606 84.9184 135.323 84.4985C136.046 84.0719 136.499 83.2795 136.682 82.1147C136.871 80.9498 136.682 80.0559 136.134 79.426C135.58 78.7962 134.538 78.3628 133.004 78.1122C131.57 77.8819 130.482 77.9768 129.745 78.3966C129.008 78.8165 128.542 79.6089 128.359 80.7737Z" fill="#C2CF45"/>
<path d="M120.084 94.4744C120.544 93.5128 121.057 92.6459 121.625 91.8603C122.193 91.0815 122.761 90.4517 123.329 89.9844L126.757 91.63C126.128 92.1447 125.526 92.761 124.945 93.4857C124.363 94.2035 123.904 94.9214 123.566 95.6257C123.214 96.3639 123.005 96.9531 122.95 97.3865C122.896 97.8267 123.086 98.145 123.532 98.3618C123.843 98.5107 124.134 98.5175 124.417 98.3888C124.695 98.2602 125.019 98.0028 125.384 97.6236C125.749 97.2443 126.216 96.7432 126.784 96.1269C127.554 95.3142 128.258 94.7182 128.893 94.3322C129.529 93.9462 130.171 93.7633 130.82 93.7769C131.469 93.7904 132.172 93.98 132.943 94.3458C134.342 95.0162 135.167 96.0321 135.417 97.3798C135.667 98.7275 135.322 100.38 134.383 102.344C134.011 103.129 133.551 103.902 133.024 104.674C132.49 105.446 132.023 106.048 131.611 106.489L128.163 104.829C128.778 104.267 129.292 103.698 129.718 103.123C130.137 102.547 130.489 101.978 130.752 101.416C131.063 100.766 131.28 100.19 131.394 99.6824C131.509 99.1744 131.354 98.8155 130.928 98.6123C130.563 98.4362 130.198 98.504 129.84 98.8087C129.481 99.1203 128.934 99.7094 128.183 100.59C127.318 101.606 126.513 102.317 125.776 102.716C125.039 103.116 124.33 103.285 123.64 103.231C122.95 103.17 122.241 102.967 121.504 102.608C120.206 101.985 119.408 100.983 119.097 99.5943C118.793 98.2128 119.124 96.4994 120.104 94.4677L120.084 94.4744Z" fill="#C2CF45"/>
<path d="M112.992 107.159L123.35 119.099L119.962 122.045L111.741 118.557L114.06 127.185L110.694 130.117L100.336 118.178L103.818 115.151L108.997 121.124L107.496 115.537L109.368 113.911L114.703 116.166L109.524 110.193L113.006 107.166L112.992 107.159Z" fill="#C2CF45"/>
<path d="M97.7806 119.004L104.94 133.104L100.83 135.197L93.6702 121.097L97.7806 119.004Z" fill="#C2CF45"/>
<path d="M91.2361 122.37L95.59 137.574L91.155 138.847L87.7746 127.043L80.9396 129.007L79.9661 125.607L91.2361 122.37Z" fill="#C2CF45"/>
<path d="M72.624 131.364L72.4279 134.892L62.51 134.337L62.7061 130.809L72.624 131.364Z" fill="#C2CF45"/>
<path d="M52.3083 120.42L51.5646 122.187C52.3151 122.56 52.9979 122.959 53.6131 123.386C54.2283 123.819 54.7286 124.253 55.1072 124.7L53.674 128.093C53.1331 127.49 52.4841 126.914 51.7404 126.366C50.9967 125.817 50.2598 125.391 49.5364 125.086C48.786 124.767 48.1843 124.605 47.7449 124.605C47.2986 124.605 46.9877 124.828 46.7916 125.282C46.5955 125.749 46.6969 126.196 47.0891 126.623C47.4879 127.05 48.164 127.659 49.124 128.458C49.9691 129.19 50.5979 129.867 51.0103 130.483C51.4227 131.1 51.639 131.736 51.6593 132.386C51.6796 133.037 51.5241 133.754 51.1928 134.533C50.1855 136.917 48.2249 137.743 45.2975 137.025L44.5133 138.881L41.0112 137.398L41.7752 135.59C41.2276 135.285 40.7138 134.973 40.2405 134.655C39.7605 134.337 39.3616 134.039 39.0371 133.761L40.4771 130.348C41.0653 130.937 41.6535 131.425 42.2484 131.818C42.8434 132.21 43.4315 132.529 43.9994 132.772C44.662 133.05 45.2569 133.226 45.7775 133.287C46.2981 133.348 46.6564 133.158 46.8389 132.725C46.9944 132.346 46.9201 131.98 46.5955 131.621C46.2778 131.262 45.6626 130.734 44.7499 130.03C43.6952 129.21 42.9515 128.438 42.5189 127.72C42.0862 127.002 41.8834 126.298 41.9036 125.607C41.9307 124.916 42.0997 124.192 42.4174 123.44C42.8569 122.397 43.5465 121.652 44.4862 121.192C45.4259 120.738 46.5888 120.63 47.9747 120.88L48.7928 118.937L52.2948 120.42H52.3083Z" fill="#C2CF45"/>
<path d="M42.8637 118.442L41.5927 120.128C40.707 120.542 39.7943 120.826 38.8546 120.982C37.9216 121.138 36.9143 121.253 35.8393 121.347C34.9402 121.422 34.2032 121.496 33.6353 121.557C33.0675 121.618 32.5942 121.727 32.2224 121.882C31.8505 122.038 31.5193 122.302 31.2421 122.668C30.539 123.596 30.7959 124.517 32.006 125.438C32.5672 125.865 33.1621 126.21 33.7841 126.481C34.4128 126.752 35.0348 126.969 35.65 127.124L33.2838 130.26C32.5942 130.063 31.837 129.752 31.0325 129.332C30.2212 128.912 29.4505 128.425 28.7203 127.869C27.1586 126.684 26.273 125.431 26.0566 124.111C25.8471 122.79 26.2121 121.51 27.1451 120.271C27.5913 119.681 28.0375 119.228 28.4972 118.909C28.957 118.591 29.4573 118.361 30.0116 118.225C30.566 118.09 31.2218 117.995 31.9857 117.934C32.6551 117.887 33.3176 117.839 33.9801 117.778C34.6359 117.724 35.2106 117.616 35.7041 117.453L31.499 114.264L33.6286 111.446L42.8569 118.449L42.8637 118.442Z" fill="#C2CF45"/>
<path d="M32.4995 109.957L30.0791 112.218L27.6047 109.564L30.0251 107.302L32.4995 109.957Z" fill="#C2CF45"/>
<path d="M24.7924 99.6755C25.7321 101.226 26.2256 102.642 26.2594 103.915C26.2933 105.188 25.9282 106.353 25.1575 107.416C24.3867 108.48 23.2577 109.468 21.7568 110.376C20.2627 111.283 18.87 111.839 17.572 112.035C16.2739 112.231 15.0705 112.021 13.9618 111.405C12.853 110.789 11.8254 109.705 10.8789 108.148C9.4727 105.825 9.0603 103.807 9.65524 102.08C10.2502 100.359 11.6699 98.8154 13.9145 97.4474C16.1522 96.0861 18.1669 95.5376 19.972 95.8017C21.7771 96.0658 23.3862 97.3593 24.7924 99.6822V99.6755ZM21.4391 101.714C20.8847 100.806 20.2019 100.353 19.3771 100.366C18.5523 100.38 17.5449 100.745 16.3618 101.47C15.1584 102.202 14.3674 102.926 13.9821 103.651C13.5967 104.375 13.6846 105.188 14.2322 106.096C14.7866 107.003 15.4694 107.457 16.2875 107.45C17.1055 107.443 18.1128 107.071 19.3162 106.339C20.5061 105.615 21.2904 104.89 21.6825 104.166C22.0746 103.441 21.9935 102.621 21.4391 101.714Z" fill="#C2CF45"/>
<path d="M18.5386 84.6477C18.9781 86.4085 19.0254 87.9052 18.6806 89.131C18.3358 90.3568 17.6395 91.3591 16.5848 92.1447C15.5301 92.9302 14.1577 93.533 12.4608 93.9596C10.7639 94.3795 9.26974 94.4947 7.97169 94.2915C6.67364 94.0951 5.59194 93.533 4.71305 92.6119C3.83416 91.6909 3.17838 90.35 2.73893 88.5824C2.08315 85.948 2.29273 83.896 3.36768 82.4264C4.44262 80.9635 6.26124 79.907 8.81002 79.2704C11.3453 78.6406 13.4411 78.7151 15.0839 79.5007C16.7268 80.2863 17.8761 81.9997 18.5319 84.6409L18.5386 84.6477ZM14.7324 85.5958C14.4755 84.5664 13.9549 83.9298 13.1639 83.6996C12.3729 83.4693 11.3047 83.5167 9.95257 83.8553C8.58691 84.1939 7.61338 84.6545 7.03196 85.2301C6.45054 85.8057 6.28829 86.6117 6.54519 87.6411C6.8021 88.6772 7.32267 89.307 8.10691 89.5441C8.89114 89.7811 9.96609 89.7269 11.325 89.3883C12.6704 89.0497 13.6439 88.596 14.2321 88.0203C14.8203 87.4447 14.9893 86.6387 14.7324 85.6026V85.5958Z" fill="#C2CF45"/>
<path d="M17.0175 68.4078C16.9161 70.2228 16.5172 71.6653 15.8277 72.7354C15.1381 73.8054 14.1713 74.5571 12.9341 74.9973C11.6969 75.4375 10.2095 75.6068 8.45853 75.5053C6.71427 75.4037 5.24721 75.0718 4.07085 74.4962C2.89449 73.9205 2.02237 73.0672 1.45447 71.9227C0.886575 70.7849 0.656712 69.3086 0.758122 67.4936C0.913617 64.7779 1.71814 62.8816 3.17844 61.798C4.63875 60.7145 6.68723 60.2472 9.31037 60.3962C11.92 60.5451 13.8941 61.2359 15.2327 62.4753C16.5713 63.7146 17.1663 65.6921 17.0108 68.4078H17.0175ZM13.1031 68.1843C13.164 67.1211 12.853 66.3626 12.1634 65.9021C11.4738 65.4483 10.4394 65.1774 9.05347 65.0962C7.64725 65.0149 6.58582 65.1639 5.86243 65.5431C5.13904 65.9224 4.74692 66.6403 4.68607 67.7035C4.62523 68.7668 4.93622 69.5253 5.61228 69.9858C6.28835 70.4395 7.3295 70.7104 8.73572 70.7917C10.1217 70.873 11.1831 70.724 11.92 70.3447C12.6501 69.9655 13.049 69.2476 13.1099 68.1843H13.1031Z" fill="#C2CF45"/>
<path d="M14.6851 51.5447L11.467 50.0887L15.5505 41.0205L18.7686 42.4766L14.6851 51.5447Z" fill="#C2CF45"/>
</g>
<defs>
<clipPath id="clip0_118_240">
<rect width="140" height="138" fill="white" transform="translate(0.737793 0.880859)"/>
</clipPath>
</defs>
</svg>
