<svg width="224" height="224" viewBox="0 0 224 224" fill="none" xmlns="http://www.w3.org/2000/svg">
<path d="M133.313 86.7028C133.313 89.6921 133.37 92.6814 133.295 95.6661C133.243 97.6745 132.752 99.5662 130.637 100.454C127.352 101.827 124.343 99.8745 123.992 96.1518C123.913 95.3111 123.922 94.4564 123.964 93.6156C124.016 92.5694 123.557 92.2144 122.532 92.2517C117.109 92.4526 112.392 94.4377 108.035 97.5951C99.3598 103.896 93.6509 112.495 88.6814 121.757C85.1999 128.254 80.8341 134.102 74.9708 138.736C72.5468 140.651 73.0709 143.075 76.0049 144.13C81.5921 146.139 87.2495 147.937 93.0847 149.067C98.0776 150.034 103.127 150.73 108.199 150.964C112.223 151.151 116.234 151.678 120.286 151.393C129.537 150.735 137.473 147.414 143.238 139.964C147.923 133.911 150.749 127.007 150.842 119.286C150.955 110.239 147.108 102.948 140.089 97.3009C139.326 96.6843 138.901 96.0304 138.915 95.0355C138.947 92.5974 138.905 90.1545 138.933 87.7117C138.952 86.217 139.27 86.0302 140.655 86.7215C146.566 89.6734 151.151 94.078 154.68 99.6176C158.217 105.166 160.084 111.243 160.234 117.815C160.346 122.85 159.209 127.68 157.651 132.439C154.642 141.622 148.975 148.834 141.18 154.406C136.542 157.718 131.217 159.32 125.616 160.161C117.081 161.436 108.606 160.431 100.127 159.595C90.2256 158.624 80.7732 155.835 71.5408 152.304C63.3472 149.17 61.4941 138.035 68.1997 132.397C74.1004 127.432 78.5692 121.412 82.0975 114.625C87.1325 104.938 93.7398 96.5582 102.584 90.0378C108.471 85.6986 115.022 83.1437 122.392 82.9195C123.543 82.8821 123.983 82.4711 123.969 81.3174C123.927 77.7816 123.973 74.2458 123.95 70.71C123.927 67.2863 125.616 64.9976 129.523 64.8622C134.961 64.6753 140.393 64.708 145.826 64.736C152.869 64.7734 157.763 68.496 159.747 75.0258C160.084 76.1328 160.229 77.2818 160.187 78.4168C160.089 81.0652 158.807 82.7093 155.84 83.0222C150.674 83.5687 145.466 83.7228 140.571 81.4015C138.526 80.4299 136.664 79.2109 135.11 77.5387C134.689 77.0903 134.282 76.1795 133.674 76.4271C132.958 76.7213 133.346 77.6788 133.337 78.3374C133.299 81.1259 133.323 83.9144 133.323 86.7028H133.313Z" fill="#E85D29"/>
<path d="M122.074 142.799C120.768 142.888 119.434 142.729 118.597 141.435C117.305 139.445 118.536 137.049 121.025 136.69C122.85 136.423 124.675 136.246 126.43 135.587C132.289 133.378 135.213 129.006 135.892 122.958C135.976 122.215 135.99 121.468 136.252 120.758C136.762 119.361 137.876 118.632 139.383 118.749C140.843 118.866 141.886 119.609 142.087 121.08C142.396 123.369 141.998 125.615 141.385 127.839C139.093 136.171 130.885 142.58 122.078 142.799H122.074Z" fill="#E85D29"/>
<path d="M44.5173 56.8939L27.606 38.9114L35.6639 31.3633C37.5123 29.6351 39.37 28.4581 41.2464 27.8416C43.1229 27.225 45.0274 27.2577 46.9693 27.9396C48.9113 28.6262 50.914 30.0649 52.9823 32.2601C55.8882 35.3522 57.2499 38.3088 57.0721 41.1393C56.8943 43.9698 55.3922 46.7069 52.5799 49.3413L44.522 56.8893L44.5173 56.8939ZM45.996 47.9447L48.1204 45.9503C48.9955 45.1282 49.6132 44.3108 49.9782 43.5028C50.3385 42.6947 50.3478 41.7886 50.0109 40.7937C49.6693 39.7988 48.8692 38.6311 47.6104 37.2906C46.3516 35.9501 45.2286 35.0486 44.2459 34.5815C43.2632 34.1191 42.3414 34.021 41.471 34.2919C40.6007 34.5628 39.7022 35.1327 38.771 36.0108L36.6466 38.0052L45.996 47.9447Z" fill="#E85D29"/>
<path d="M74.634 34.7025C70.9419 36.468 67.6898 36.9211 64.8821 36.057C62.0698 35.1929 59.702 32.7594 57.7788 28.7519C56.4499 25.9867 55.8181 23.5533 55.8836 21.4374C55.9492 19.3262 56.6417 17.4765 57.966 15.8978C59.2902 14.3144 61.176 12.9412 63.6187 11.7688C66.0613 10.6011 68.3215 9.99392 70.3851 9.95189C72.4534 9.91452 74.3298 10.5264 76.0191 11.8015C77.7083 13.0767 79.2151 15.0898 80.5441 17.8549C82.4673 21.8624 82.8791 25.2301 81.7841 27.9672C80.6844 30.6996 78.3026 32.9462 74.634 34.7025ZM71.9808 29.1769C73.642 28.3829 74.6246 27.3413 74.9241 26.0475C75.2236 24.7583 74.8867 23.0862 73.8993 21.0357C72.8511 18.8498 71.7281 17.4812 70.5442 16.9301C69.3556 16.3789 67.9331 16.5003 66.2719 17.2944C64.6107 18.0884 63.6234 19.1207 63.3098 20.3865C62.9963 21.6569 63.366 23.3851 64.4189 25.571C65.4015 27.6215 66.4918 28.934 67.6898 29.5039C68.8877 30.0784 70.3149 29.9663 71.9761 29.1722L71.9808 29.1769Z" fill="#E85D29"/>
<path d="M88.7656 28.243L85.3123 3.81936L91.3908 2.9646L102.453 14.5949L100.623 1.66145L107.764 0.657227L111.217 25.0808L105.101 25.9449L94.0814 14.3473L95.9064 27.2434L88.7656 28.2477V28.243Z" fill="#E85D29"/>
<path d="M114.17 24.8192L127.759 2.15176L135.279 3.46426L140.356 29.3919L132.949 28.0981L131.811 22.5725L124.479 21.2927L121.568 26.113L114.161 24.8192H114.17ZM126.327 16.365L131.769 17.3132L130.295 9.70912L126.323 16.365H126.327Z" fill="#E85D29"/>
<path d="M145.096 32.1481L153.145 14.5952L146.828 11.7086L149.064 6.83232L168.255 15.5994L166.018 20.4757L159.701 17.5892L151.652 35.142L145.092 32.1434L145.096 32.1481Z" fill="#E85D29"/>
<path d="M159.874 39.6303L175.082 20.1904L189.841 31.69L186.439 36.0385L177.365 28.9669L174.885 32.1383L182.84 38.3365L179.392 42.7457L171.437 36.5476L168.957 39.7191L178.03 46.7906L174.628 51.1392L159.869 39.635L159.874 39.6303Z" fill="#E85D29"/>
<path d="M188.816 55.745L193.5 52.8211L201.74 65.9694L197.056 68.8933L188.816 55.745Z" fill="#E85D29"/>
<path d="M195.334 84.5729L219.555 79.6872L221.745 90.5001C222.245 92.9803 222.264 95.1756 221.806 97.0906C221.347 99.0057 220.313 100.608 218.708 101.897C217.103 103.186 214.819 104.125 211.862 104.723C207.697 105.563 204.459 105.162 202.143 103.518C199.826 101.874 198.287 99.1645 197.52 95.3858L195.33 84.5729H195.334ZM202.18 90.5375L202.756 93.3913C202.994 94.5684 203.364 95.5212 203.865 96.2545C204.365 96.9879 205.128 97.469 206.153 97.7072C207.178 97.9407 208.596 97.88 210.402 97.5157C212.208 97.1513 213.565 96.6749 214.478 96.0864C215.39 95.4979 215.961 94.7646 216.186 93.8865C216.41 93.0083 216.401 91.9434 216.148 90.6916L215.573 87.8378L202.185 90.5375H202.18Z" fill="#E85D29"/>
<path d="M198.418 121.851C198.844 117.787 200.163 114.788 202.372 112.85C204.581 110.912 207.898 110.174 212.325 110.636C215.376 110.954 217.791 111.696 219.559 112.855C221.328 114.018 222.54 115.573 223.195 117.53C223.85 119.487 224.038 121.809 223.757 124.504C223.471 127.194 222.807 129.431 221.759 131.206C220.711 132.986 219.199 134.256 217.229 135.027C215.259 135.798 212.746 136.022 209.691 135.7C205.264 135.237 202.171 133.822 200.416 131.454C198.657 129.086 197.992 125.886 198.418 121.846V121.851ZM204.525 122.491C204.333 124.322 204.707 125.699 205.652 126.634C206.598 127.568 208.198 128.152 210.463 128.39C212.882 128.642 214.632 128.409 215.727 127.689C216.817 126.97 217.463 125.695 217.65 123.869C217.842 122.042 217.477 120.66 216.56 119.73C215.643 118.801 213.972 118.208 211.558 117.955C209.293 117.717 207.604 117.955 206.485 118.675C205.367 119.394 204.712 120.664 204.52 122.495L204.525 122.491Z" fill="#E85D29"/>
<path d="M192.826 144.607C193.453 143.07 194.174 141.664 194.979 140.394C195.788 139.123 196.616 138.096 197.459 137.306L202.966 139.544C202.035 140.408 201.151 141.426 200.308 142.598C199.471 143.775 198.82 144.929 198.357 146.064C197.875 147.246 197.608 148.18 197.566 148.867C197.52 149.553 197.856 150.039 198.563 150.329C199.059 150.529 199.522 150.52 199.943 150.291C200.369 150.062 200.847 149.637 201.375 149.011C201.904 148.386 202.587 147.568 203.416 146.555C204.539 145.219 205.582 144.224 206.541 143.565C207.501 142.907 208.488 142.556 209.499 142.514C210.51 142.472 211.633 142.701 212.863 143.201C215.114 144.116 216.499 145.611 217.019 147.685C217.538 149.759 217.159 152.365 215.877 155.513C215.367 156.765 214.73 158.017 213.972 159.269C213.214 160.516 212.536 161.501 211.937 162.225L206.392 159.969C207.295 159.04 208.048 158.105 208.652 157.167C209.255 156.228 209.742 155.308 210.107 154.411C210.533 153.369 210.809 152.449 210.945 151.65C211.076 150.852 210.8 150.31 210.112 150.03C209.517 149.787 208.961 149.927 208.432 150.441C207.903 150.955 207.098 151.931 206.017 153.365C204.759 155.032 203.57 156.209 202.461 156.9C201.352 157.592 200.252 157.928 199.171 157.9C198.09 157.872 196.958 157.62 195.774 157.139C193.687 156.289 192.339 154.803 191.731 152.683C191.118 150.557 191.478 147.867 192.812 144.602L192.826 144.607Z" fill="#E85D29"/>
<path d="M182.929 165.088L200.388 182.543L195.418 187.494L182.208 182.958L186.757 196.125L181.815 201.048L164.357 183.594L169.462 178.507L178.194 187.237L175.241 178.703L177.983 175.971L186.556 178.904L177.824 170.174L182.929 165.088Z" fill="#E85D29"/>
<path d="M160.463 185.21L173.285 206.298L167.117 210.035L154.296 188.946L160.463 185.21Z" fill="#E85D29"/>
<path d="M150.59 191.235L159.233 214.342L152.476 216.859L145.765 198.919L135.34 202.8L133.407 197.634L150.59 191.231V191.235Z" fill="#E85D29"/>
<path d="M122.649 207.531L122.808 213.043L107.273 213.491L107.114 207.98L122.649 207.531Z" fill="#E85D29"/>
<path d="M89.4301 193.305L88.527 196.154C89.7483 196.621 90.8714 197.144 91.8962 197.719C92.9209 198.298 93.7586 198.905 94.4184 199.54L92.6823 205.019C91.7464 204.16 90.6608 203.361 89.4161 202.623C88.176 201.88 86.9688 201.329 85.7989 200.956C84.5776 200.568 83.623 200.409 82.9351 200.47C82.2472 200.535 81.784 200.928 81.55 201.661C81.3114 202.413 81.5313 203.095 82.2098 203.697C82.893 204.3 84.0348 205.15 85.6445 206.252C87.067 207.266 88.148 208.223 88.8779 209.125C89.6126 210.026 90.0384 210.979 90.1648 211.983C90.2911 212.988 90.1507 214.123 89.7483 215.388C88.527 219.232 85.5883 220.806 80.923 220.111L79.9731 223.104L74.3016 221.311L75.2281 218.392C74.3344 217.999 73.4874 217.593 72.6966 217.168C71.9058 216.743 71.2366 216.336 70.6891 215.949L72.4392 210.437C73.4406 211.264 74.4327 211.937 75.42 212.464C76.4074 212.992 77.362 213.399 78.2885 213.693C79.3601 214.034 80.31 214.211 81.1382 214.23C81.9618 214.249 82.4906 213.908 82.7105 213.202C82.9024 212.595 82.7245 212.035 82.1771 211.526C81.6296 211.016 80.5907 210.283 79.0746 209.321C77.3105 208.2 76.0377 207.116 75.2562 206.065C74.4748 205.014 74.0536 203.95 73.9928 202.875C73.932 201.796 74.0957 200.652 74.4795 199.433C75.0129 197.751 75.9769 196.49 77.3713 195.645C78.7658 194.799 80.5627 194.468 82.7573 194.655L83.754 191.516L89.4254 193.309L89.4301 193.305Z" fill="#E85D29"/>
<path d="M70.764 189.255L61.8217 204.888L65.6916 206.387L62.7061 211.609L52.0605 207.438L64.503 185.686L70.7687 189.255H70.764Z" fill="#E85D29"/>
<path d="M52.9777 175.981C55.0554 177.914 56.389 179.829 56.9786 181.721C57.5682 183.618 57.512 185.523 56.8008 187.448C56.0895 189.367 54.8027 191.329 52.9356 193.328C51.0685 195.327 49.2014 196.747 47.3297 197.588C45.4579 198.429 43.5581 198.62 41.6208 198.167C39.6882 197.709 37.6808 196.518 35.6031 194.585C32.496 191.693 31.0267 188.835 31.1904 186C31.3542 183.164 32.8376 180.245 35.6499 177.242C38.4435 174.253 41.2511 172.576 44.0822 172.207C46.9132 171.838 49.8799 173.099 52.9824 175.99L52.9777 175.981ZM48.7896 180.465C47.573 179.334 46.347 178.951 45.1116 179.32C43.8763 179.689 42.5146 180.666 41.0312 182.254C39.5291 183.86 38.6447 185.285 38.3733 186.532C38.1019 187.779 38.5698 188.97 39.7865 190.101C41.0031 191.231 42.2245 191.619 43.4505 191.259C44.6765 190.899 46.0428 189.918 47.5402 188.312C49.0236 186.724 49.9033 185.304 50.1888 184.047C50.4696 182.791 50.0016 181.595 48.785 180.465H48.7896Z" fill="#E85D29"/>
<path d="M42.9357 165.574L38.7196 168.582L35.4159 163.972L39.632 160.964L42.9357 165.574Z" fill="#E85D29"/>
<path d="M33.0201 148.109C34.1759 150.697 34.6579 152.976 34.466 154.952C34.2695 156.928 33.4693 158.661 32.0655 160.155C30.6617 161.65 28.7104 162.953 26.2069 164.065C23.7081 165.177 21.4339 165.76 19.3796 165.807C17.3301 165.854 15.5004 165.293 13.8954 164.121C12.2904 162.949 10.9099 161.066 9.75413 158.479C8.02276 154.607 7.78411 151.402 9.04286 148.857C10.2969 146.311 12.8051 144.2 16.5673 142.523C20.3062 140.856 23.549 140.403 26.2958 141.164C29.0473 141.925 31.284 144.237 33.0154 148.109H33.0201ZM27.4142 150.608C26.7357 149.095 25.7577 148.264 24.4755 148.123C23.1934 147.983 21.5602 148.352 19.5762 149.24C17.5687 150.137 16.193 151.103 15.4536 152.145C14.7143 153.187 14.6862 154.466 15.3647 155.98C16.0432 157.498 17.0166 158.324 18.2893 158.474C19.5621 158.619 21.1999 158.245 23.2074 157.353C25.1915 156.466 26.5625 155.503 27.3112 154.452C28.0599 153.406 28.0974 152.122 27.4188 150.608H27.4142Z" fill="#E85D29"/>
<path d="M26.1553 123.57C26.5109 126.382 26.3051 128.703 25.547 130.539C24.7843 132.37 23.5161 133.799 21.738 134.822C19.9598 135.845 17.7137 136.527 14.995 136.867C12.2809 137.208 9.93185 137.106 7.95715 136.555C5.97777 136.008 4.39613 134.938 3.20289 133.35C2.00964 131.762 1.23754 129.562 0.881906 126.751C0.353134 122.547 1.05972 119.408 3.00167 117.334C4.94362 115.265 7.95715 113.971 12.0469 113.457C16.1087 112.948 19.3421 113.457 21.752 114.98C24.1619 116.503 25.6312 119.371 26.1647 123.574L26.1553 123.57ZM20.0627 124.336C19.8568 122.692 19.1596 121.613 17.9711 121.104C16.7825 120.594 15.1166 120.478 12.9547 120.749C10.7741 121.024 9.17379 121.552 8.16772 122.337C7.15697 123.121 6.75922 124.336 6.96512 125.98C7.17101 127.629 7.86356 128.703 9.03809 129.212C10.2126 129.721 11.8878 129.838 14.0731 129.562C16.2303 129.291 17.8213 128.764 18.8414 127.979C19.8662 127.194 20.2733 125.98 20.0627 124.331V124.336Z" fill="#E85D29"/>
<path d="M26.7076 98.0811C26.2303 100.874 25.3599 103.037 24.0965 104.574C22.8377 106.106 21.2046 107.105 19.2065 107.567C17.2084 108.03 14.8594 108.03 12.1594 107.567C9.45934 107.11 7.24599 106.33 5.51462 105.232C3.78324 104.134 2.57596 102.654 1.89744 100.785C1.21893 98.9218 1.11599 96.5911 1.59328 93.798C2.30923 89.6223 3.89555 86.8198 6.35691 85.3999C8.81827 83.9799 12.0798 83.6156 16.1415 84.3116C20.1752 84.9982 23.1232 86.4228 24.9856 88.5807C26.848 90.7386 27.4235 93.9054 26.7076 98.0811ZM20.6571 97.0488C20.9379 95.4141 20.5823 94.181 19.5949 93.3496C18.6076 92.5228 17.0446 91.925 14.9015 91.556C12.7349 91.187 11.0503 91.229 9.85709 91.6868C8.66385 92.1445 7.9245 93.1908 7.64374 94.8255C7.36298 96.4603 7.70925 97.6934 8.68725 98.5201C9.66056 99.3469 11.2328 99.9447 13.3994 100.314C15.5426 100.678 17.2178 100.636 18.4251 100.178C19.6323 99.7252 20.3764 98.679 20.6571 97.0442V97.0488Z" fill="#E85D29"/>
<path d="M26.001 71.5134L21.2327 68.7296L29.08 55.3431L33.8483 58.1269L26.001 71.5134Z" fill="#E85D29"/>
</svg>
