<svg width="199" height="68" viewBox="0 0 199 68" fill="none" xmlns="http://www.w3.org/2000/svg">
<path d="M198.203 31.5319C198.227 30.5195 198.209 29.4832 198.153 28.426C197.699 20.3776 192.24 16.5191 185.95 13.5357C181.811 11.5736 177.394 9.9251 172.917 8.96944C137.176 1.30329 101.097 -0.92757 64.6594 2.62329C49.2286 3.9851 34.2009 7.42845 19.5823 12.356C9.09999 15.886 1.06352 22.6532 0.248222 34.5392C0.200439 35.241 0.188494 35.9189 0.212385 36.5789C0.188494 37.5943 0.206412 38.6336 0.263154 39.6908C0.717091 47.7392 6.17628 51.5977 12.4657 54.5811C16.6049 56.5432 21.0218 58.1917 25.4984 59.1474C61.24 66.8165 97.319 69.0473 133.756 65.4965C149.187 64.1347 164.215 60.6913 178.833 55.7637C189.319 52.2338 197.355 45.4665 198.168 33.5776C198.215 32.8758 198.227 32.1949 198.203 31.5319ZM182.163 48.7247C165.971 55.8444 148.605 58.3888 131.254 60.1418C97.2742 63.5852 63.4649 61.6769 29.9393 54.9484C24.3994 53.8405 19.1075 52.1263 14.1291 49.6087C8.28768 46.6551 4.13655 42.6294 4.89809 35.1126C5.00261 34.0883 5.15193 33.0938 5.34306 32.1351H5.27736C5.32813 31.9141 5.38487 31.6931 5.4446 31.4751C6.896 26.1742 10.7127 21.829 16.2555 19.3921C32.4479 12.2724 49.8139 9.72799 67.165 7.97496C101.145 4.53162 134.954 6.43994 168.48 13.1684C174.019 14.2763 179.311 15.9905 184.29 18.5081C190.131 21.4617 194.282 25.4874 193.521 33.0042C193.392 34.2674 193.195 35.4799 192.935 36.6387H192.974C191.523 41.9396 187.706 46.2848 182.163 48.7217V48.7247ZM42.5808 52.2159C38.7522 52.2159 35.5717 51.5051 33.0362 50.0835C30.5007 48.662 28.7417 46.6103 27.7592 43.9315C26.7736 41.2527 26.6841 38.0512 27.4844 34.3331C28.7596 28.4648 31.2294 23.9255 34.8937 20.715C38.5581 17.5076 43.6888 15.9009 50.2888 15.9009C52.439 15.9009 54.3264 16.0652 55.948 16.3937C57.5697 16.7222 59.0927 17.1582 60.5143 17.7077L58.9285 25.4187C56.0466 24.1046 52.8392 23.4506 49.3032 23.4506C45.7673 23.4506 42.9869 24.3256 40.8546 26.0757C38.7223 27.8257 37.253 30.5792 36.4527 34.3331C35.6493 38.0901 35.8703 40.7599 37.1097 42.3457C38.349 43.9315 40.9383 44.7259 44.8744 44.7259C46.5886 44.7259 48.3207 44.5706 50.0708 44.26C51.8208 43.9494 53.5529 43.4656 55.2671 42.8116L53.6276 50.5763C51.988 51.087 50.2738 51.4872 48.4879 51.7798C46.7021 52.0725 44.731 52.2188 42.5808 52.2188V52.2159ZM73.6993 52.2159C70.7099 52.2159 68.1117 51.6425 65.9048 50.4927C63.6978 49.3429 62.1031 47.7213 61.1205 45.6248C60.135 43.5283 59.9349 41.0765 60.5202 38.2693L65.1134 16.4474H73.9174L69.4885 37.448C68.9778 39.8909 69.151 41.7126 70.0081 42.9161C70.8652 44.1197 72.6242 44.7199 75.2851 44.7199C77.946 44.7199 80.0246 44.1197 81.4103 42.9161C82.796 41.7126 83.7427 39.8909 84.2534 37.448L88.6822 16.4474H97.4862L92.8931 38.2693C91.8717 43.0087 89.7215 46.5178 86.4394 48.7964C83.1573 51.075 78.9107 52.2159 73.6964 52.2159H73.6993ZM112.804 52.2159C108.975 52.2159 105.812 51.523 103.316 50.1373C100.819 48.7516 99.0959 46.7388 98.1462 44.0928C97.1965 41.4498 97.1249 38.2693 97.9282 34.5482C99.2034 28.6798 101.757 24.1017 105.585 20.8226C109.414 17.5405 114.589 15.9009 121.118 15.9009C123.268 15.9009 125.182 16.0294 126.861 16.2832C128.536 16.54 130.104 16.9223 131.564 17.433L129.925 24.9797C128.503 24.3973 126.998 23.9941 125.412 23.7761C123.826 23.5581 122.139 23.4476 120.353 23.4476C116.596 23.4476 113.628 24.3495 111.439 26.1533C109.25 27.9571 107.739 30.7554 106.899 34.5482C106.096 38.1946 106.269 40.8017 107.419 42.3696C108.569 43.9375 110.91 44.7199 114.446 44.7199C115.503 44.7199 116.596 44.6393 117.728 44.475C118.857 44.3108 119.807 44.1017 120.571 43.8449L121.993 37.1732H114.392L115.542 31.6484H130.528L126.81 49.095C125.388 49.8984 123.51 50.6181 121.178 51.2542C118.845 51.8903 116.056 52.2099 112.81 52.2099L112.804 52.2159ZM147.094 52.2159C143.594 52.2159 140.667 51.5588 138.317 50.2478C135.966 48.9368 134.333 46.9478 133.422 44.2869C132.511 41.626 132.493 38.2722 133.368 34.2227C134.754 27.6973 137.179 23.0116 140.643 20.1685C144.107 17.3255 148.847 15.9039 154.861 15.9039C158.361 15.9039 161.288 16.552 163.639 17.8451C165.989 19.1382 167.613 21.1361 168.506 23.8329C169.399 26.5326 169.39 29.9939 168.48 34.2227C167.165 40.3836 164.77 44.923 161.288 47.8407C157.806 50.7585 153.076 52.2159 147.097 52.2159H147.094ZM148.68 44.7229C151.633 44.7229 153.974 43.8748 155.707 42.1785C157.439 40.4822 158.687 37.8302 159.452 34.2197C160.034 31.4841 160.234 29.3339 160.052 27.766C159.87 26.1981 159.222 25.0872 158.111 24.4302C156.997 23.7731 155.366 23.4446 153.216 23.4446C150.226 23.4446 147.873 24.257 146.162 25.8786C144.448 27.5002 143.173 30.2806 142.333 34.2197C141.823 36.7342 141.658 38.768 141.841 40.3179C142.023 41.8679 142.662 42.9878 143.755 43.6807C144.848 44.3735 146.49 44.7199 148.677 44.7199L148.68 44.7229Z" fill="#F2EBEA"/>
</svg>
