<svg width="140" height="62" viewBox="0 0 140 62" fill="none" xmlns="http://www.w3.org/2000/svg">
<path d="M15.8547 36.273C12.1071 36.273 8.9913 35.5784 6.51513 34.1853C4.03503 32.7922 2.3123 30.787 1.35087 28.1617C0.385518 25.5403 0.299185 22.4088 1.08403 18.7671C2.328 13.0221 4.74531 8.57988 8.33204 5.43659C11.9188 2.29722 16.9417 0.727539 23.401 0.727539C25.5083 0.727539 27.3527 0.888432 28.942 1.21022C30.5274 1.532 32.0185 1.95974 33.4116 2.49343L31.8577 10.0397C29.0362 8.75647 25.8968 8.1129 22.4356 8.1129C18.9745 8.1129 16.2511 8.96838 14.1634 10.6833C12.0757 12.3981 10.6395 15.0901 9.85463 18.7671C9.06979 22.4441 9.28169 25.0576 10.4982 26.6077C11.7108 28.1617 14.2458 28.9347 18.0994 28.9347C19.775 28.9347 21.4703 28.7817 23.1852 28.4795C24.9 28.1774 26.5914 27.7025 28.2709 27.0629L26.6659 34.6641C25.0609 35.1625 23.3814 35.5549 21.6351 35.8413C19.8849 36.1278 17.9581 36.2691 15.8547 36.2691V36.273Z" fill="#F2EBEA"/>
<path d="M46.3144 36.273C43.387 36.273 40.8441 35.7118 38.6858 34.5856C36.5275 33.4633 34.9656 31.874 34.0003 29.8216C33.0349 27.7693 32.8387 25.3716 33.4116 22.6207L37.9088 1.26123H46.5263L42.1901 21.8162C41.6917 24.2061 41.8605 25.9916 42.7002 27.1688C43.54 28.3461 45.2588 28.9347 47.8645 28.9347C50.4702 28.9347 52.5029 28.3461 53.8607 27.1688C55.2185 25.9916 56.1446 24.2061 56.6429 21.8162L60.9831 1.26123H69.6007L65.1035 22.6207C64.1029 27.2591 61.9995 30.6967 58.7856 32.9257C55.5716 35.1546 51.4159 36.273 46.3105 36.273H46.3144Z" fill="#F2EBEA"/>
<path d="M84.5911 36.273C80.8435 36.273 77.7473 35.5941 75.3026 34.2403C72.8578 32.8825 71.1704 30.9125 70.2442 28.3265C69.3142 25.7404 69.2436 22.6246 70.0284 18.9869C71.2763 13.2418 73.776 8.76039 77.5237 5.55039C81.2713 2.33254 86.3374 0.727539 92.726 0.727539C94.8294 0.727539 96.7052 0.853114 98.3455 1.10426C99.9858 1.35541 101.52 1.72821 102.949 2.22659L101.344 9.61587C99.9505 9.04686 98.4789 8.65051 96.9289 8.43861C95.3788 8.2267 93.7267 8.11682 91.9765 8.11682C88.2995 8.11682 85.3917 8.99977 83.2491 10.7657C81.1065 12.5316 79.627 15.2707 78.8069 18.983C78.022 22.5501 78.1908 25.1047 79.317 26.6391C80.4433 28.1734 82.735 28.9426 86.1962 28.9426C87.2321 28.9426 88.3035 28.8641 89.4101 28.7032C90.5167 28.5423 91.4428 28.3383 92.1923 28.0871L93.5854 21.5572H86.1451L87.2675 16.1497H101.936L98.2945 33.2278C96.9014 34.0127 95.0649 34.719 92.781 35.343C90.4971 35.9669 87.7658 36.2809 84.5911 36.2809V36.273Z" fill="#F2EBEA"/>
<path d="M118.155 36.273C114.729 36.273 111.864 35.6294 109.565 34.3462C107.265 33.063 105.664 31.1166 104.773 28.5109C103.883 25.9053 103.863 22.6207 104.718 18.6612C106.076 12.2726 108.446 7.68516 111.837 4.9029C115.227 2.12063 119.866 0.727539 125.756 0.727539C129.182 0.727539 132.047 1.36326 134.346 2.62686C136.65 3.89437 138.235 5.84863 139.11 8.48962C139.985 11.1306 139.973 14.5211 139.083 18.6612C137.799 24.6927 135.453 29.1349 132.043 31.9917C128.633 34.8485 124.002 36.273 118.151 36.273H118.155ZM119.709 28.9387C122.601 28.9387 124.893 28.1107 126.588 26.4507C128.283 24.7908 129.504 22.193 130.253 18.6612C130.822 15.9849 131.018 13.8776 130.842 12.3432C130.661 10.8088 130.03 9.72182 128.943 9.07825C127.856 8.43468 126.258 8.1129 124.151 8.1129C121.224 8.1129 118.924 8.90559 117.244 10.4949C115.565 12.0842 114.317 14.8037 113.497 18.6572C112.998 21.1216 112.838 23.1112 113.014 24.626C113.191 26.1446 113.819 27.2395 114.886 27.9184C115.957 28.5973 117.562 28.9347 119.705 28.9347L119.709 28.9387Z" fill="#F2EBEA"/>
<path d="M12.4368 56.7652V42.9756H19.1158C20.4853 42.9756 21.5017 43.2973 22.157 43.9409C22.8124 44.5845 23.142 45.491 23.142 46.6604C23.142 47.4021 22.9929 48.026 22.6907 48.5322C22.3925 49.0385 21.9922 49.4191 21.4899 49.6781C22.1609 49.8625 22.6907 50.1961 23.0831 50.6749C23.4755 51.1536 23.6718 51.856 23.6718 52.7821C23.6718 54.1242 23.3107 55.1249 22.5887 55.7802C21.8666 56.4356 20.8071 56.7652 19.4101 56.7652H12.4368ZM14.7717 48.8619H18.7979C19.5827 48.8619 20.1439 48.6814 20.4775 48.3164C20.811 47.9515 20.9798 47.4648 20.9798 46.8487C20.9798 46.1345 20.8071 45.6048 20.4657 45.2516C20.1243 44.9023 19.4807 44.7258 18.5389 44.7258H14.7717V48.8619ZM14.7717 55.0503H18.9274C19.7554 55.0503 20.3637 54.8738 20.7482 54.5245C21.1328 54.1752 21.3251 53.5631 21.3251 52.6919C21.3251 51.9777 21.1367 51.4479 20.7561 51.0947C20.3794 50.7455 19.6887 50.5689 18.688 50.5689H14.7677V55.0425L14.7717 55.0503Z" fill="#F2EBEA"/>
<path d="M26.6777 56.7652V48.391H25.1355L25.3513 46.6133H29.0126V56.7613H26.6777V56.7652ZM26.4854 44.4942V42.5674H29.0322V44.4942H26.4854Z" fill="#F2EBEA"/>
<path d="M36.5902 56.9811C34.7616 56.9811 33.4234 56.5258 32.5758 55.6115C31.7282 54.6972 31.3004 53.3904 31.3004 51.6912C31.3004 49.992 31.7282 48.6853 32.5836 47.7709C33.4391 46.8566 34.7733 46.4014 36.5863 46.4014C38.3993 46.4014 39.7571 46.8566 40.6126 47.7709C41.468 48.6853 41.8958 49.992 41.8958 51.6912C41.8958 53.3904 41.472 54.6972 40.6204 55.6115C39.7689 56.5258 38.4268 56.9811 36.5824 56.9811H36.5902ZM36.5902 55.0111C37.6616 55.0111 38.4229 54.7521 38.8702 54.2302C39.3215 53.7083 39.5452 52.8646 39.5452 51.6912C39.5452 50.5179 39.3215 49.6781 38.8702 49.164C38.4189 48.65 37.6616 48.3949 36.5902 48.3949C35.5189 48.3949 34.7812 48.65 34.3299 49.164C33.8786 49.6781 33.6549 50.5218 33.6549 51.6912C33.6549 52.8606 33.8786 53.7083 34.3299 54.2302C34.7812 54.7521 35.5307 55.0111 36.5902 55.0111Z" fill="#F2EBEA"/>
<path d="M44.1718 61.3919V46.6172H46.1849L46.3144 47.6218C46.7696 47.2098 47.2719 46.8998 47.8135 46.6996C48.355 46.4995 48.9986 46.4014 49.7403 46.4014C51.1961 46.4014 52.3302 46.7977 53.1465 47.5904C53.9627 48.3831 54.3669 49.6938 54.3669 51.5186C54.3669 53.3433 53.947 54.7129 53.1033 55.6194C52.2596 56.5258 51.1137 56.9771 49.6539 56.9771C48.4257 56.9771 47.3779 56.6907 46.5067 56.1217V61.3879H44.1718V61.3919ZM49.0535 55.223C51.0235 55.223 52.0085 53.983 52.0085 51.4989C52.0085 50.2981 51.7887 49.4466 51.3453 48.9403C50.9018 48.4341 50.1602 48.1791 49.1163 48.1791C48.0725 48.1791 47.2013 48.5362 46.5028 49.2504V54.3244C46.8324 54.5951 47.1974 54.8149 47.6055 54.9758C48.0136 55.1406 48.4924 55.223 49.0496 55.223H49.0535Z" fill="#F2EBEA"/>
<path d="M59.1584 56.9811C58.3304 56.9811 57.7025 56.777 57.2747 56.3689C56.847 55.9608 56.6312 55.2858 56.6312 54.344V42.332H58.9661V54.1321C58.9661 54.5323 59.0367 54.8031 59.178 54.9444C59.3193 55.0857 59.5351 55.1602 59.8216 55.1602C60.163 55.1602 60.4926 55.1171 60.8065 55.0307V56.7221C60.5358 56.8202 60.2728 56.8908 60.0256 56.9261C59.7745 56.9614 59.488 56.9811 59.1584 56.9811Z" fill="#F2EBEA"/>
<path d="M65.7981 56.9811C65.1546 56.9811 64.5581 56.8672 64.0087 56.6396C63.4593 56.412 63.0198 56.0667 62.6902 55.5997C62.3605 55.1367 62.1996 54.5598 62.1996 53.877C62.1996 52.9077 62.5332 52.1229 63.1964 51.5303C63.8596 50.9378 64.8838 50.6435 66.269 50.6435H69.5222V50.1922C69.5222 49.7056 69.4476 49.321 69.2985 49.0345C69.1494 48.7481 68.8786 48.544 68.4862 48.4145C68.0938 48.285 67.5208 48.2222 66.7635 48.2222C65.5627 48.2222 64.4443 48.4027 63.4004 48.7559V47.0214C63.8556 46.837 64.4129 46.6879 65.0721 46.5701C65.7275 46.4563 66.4338 46.3975 67.1912 46.3975C68.6746 46.3975 69.8087 46.6957 70.5857 47.2961C71.3626 47.8965 71.7511 48.8736 71.7511 50.2314V56.7613H69.7616L69.6124 55.7332C69.1965 56.1334 68.6863 56.4395 68.082 56.6553C67.4738 56.8712 66.7164 56.9771 65.802 56.9771L65.7981 56.9811ZM66.4182 55.3093C67.1167 55.3093 67.7288 55.1916 68.2508 54.9562C68.7727 54.7207 69.1965 54.4028 69.5261 54.0026V52.2249H66.3161C65.6294 52.2249 65.1349 52.3583 64.8288 52.6213C64.5228 52.8842 64.3697 53.2884 64.3697 53.8299C64.3697 54.3715 64.5463 54.7364 64.9034 54.964C65.2605 55.1916 65.7667 55.3054 66.4221 55.3054L66.4182 55.3093Z" fill="#F2EBEA"/>
<path d="M77.7238 56.9811C77.0253 56.9811 76.3582 56.93 75.7224 56.8319C75.0867 56.7338 74.5609 56.6122 74.1488 56.467V54.497C74.6354 54.6815 75.1691 54.8267 75.7538 54.9248C76.3385 55.0229 76.8958 55.0739 77.4255 55.0739C78.2261 55.0739 78.7951 55.0033 79.1404 54.8581C79.4818 54.7168 79.6545 54.4382 79.6545 54.0222C79.6545 53.724 79.5525 53.4885 79.3445 53.3158C79.1365 53.1432 78.8304 52.9862 78.4223 52.8449C78.0142 52.7037 77.4962 52.531 76.8683 52.3309C76.2679 52.1307 75.746 51.9149 75.3065 51.6794C74.863 51.444 74.5216 51.1418 74.2783 50.769C74.035 50.3962 73.9134 49.9136 73.9134 49.3131C73.9134 48.387 74.2469 47.6689 74.918 47.1627C75.589 46.6565 76.6682 46.4014 78.1515 46.4014C78.7362 46.4014 79.2935 46.4446 79.8232 46.5309C80.353 46.6172 80.8004 46.7232 81.1732 46.8527V48.803C80.7729 48.646 80.3334 48.5244 79.8546 48.4381C79.3759 48.3517 78.9285 48.3086 78.5165 48.3086C77.7748 48.3086 77.2136 48.3713 76.8369 48.5008C76.4602 48.6303 76.2679 48.8854 76.2679 49.27C76.2679 49.6546 76.4641 49.9528 76.8565 50.1176C77.249 50.2824 77.8808 50.5061 78.7519 50.7926C79.5525 51.0359 80.1882 51.2909 80.6591 51.5617C81.13 51.8325 81.4675 52.1582 81.6755 52.5349C81.8834 52.9117 81.9855 53.4022 81.9855 54.0026C81.9855 55.0033 81.6205 55.7489 80.8945 56.2394C80.1646 56.7338 79.109 56.9771 77.7238 56.9771V56.9811Z" fill="#F2EBEA"/>
<path d="M87.8325 56.9811C86.7455 56.9811 85.9371 56.6907 85.4035 56.1138C84.8698 55.5369 84.599 54.7482 84.599 53.7475V48.4381H83.1V46.6172H84.599V44.2823L86.9104 43.576V46.6172H89.6102L89.4611 48.4381H86.9143V53.6219C86.9143 54.2066 87.0516 54.6187 87.3224 54.8541C87.5932 55.0896 88.0366 55.2073 88.6488 55.2073C89.0333 55.2073 89.4415 55.1367 89.8692 54.9915V56.6396C89.312 56.8672 88.6331 56.9811 87.8365 56.9811H87.8325Z" fill="#F2EBEA"/>
<path d="M92.6907 56.7652V48.391H91.1485L91.3643 46.6133H95.0256V56.7613H92.6907V56.7652ZM92.4984 44.4942V42.5674H95.0452V44.4942H92.4984Z" fill="#F2EBEA"/>
<path d="M102.733 56.9811C100.947 56.9811 99.5973 56.5298 98.6869 55.6233C97.7726 54.7168 97.3173 53.4061 97.3173 51.6951C97.3173 49.9842 97.8196 48.5832 98.8282 47.7121C99.8328 46.8409 101.179 46.4053 102.866 46.4053C103.565 46.4053 104.153 46.4563 104.632 46.5544C105.111 46.6525 105.57 46.8095 106.013 47.0253V48.7598C105.272 48.387 104.373 48.2026 103.314 48.2026C102.144 48.2026 101.242 48.4616 100.614 48.9835C99.9858 49.5054 99.6719 50.408 99.6719 51.6912C99.6719 52.9038 99.9505 53.7946 100.508 54.3558C101.065 54.9208 101.987 55.2034 103.27 55.2034C104.283 55.2034 105.205 55.0111 106.033 54.6265V56.4042C105.562 56.5886 105.06 56.7338 104.522 56.8319C103.989 56.93 103.392 56.9811 102.733 56.9811Z" fill="#F2EBEA"/>
<path d="M112.755 56.9811C110.926 56.9811 109.588 56.5258 108.741 55.6115C107.893 54.6972 107.465 53.3904 107.465 51.6912C107.465 49.992 107.893 48.6853 108.749 47.7709C109.604 46.8566 110.938 46.4014 112.751 46.4014C114.564 46.4014 115.922 46.8566 116.777 47.7709C117.633 48.6853 118.061 49.992 118.061 51.6912C118.061 53.3904 117.637 54.6972 116.785 55.6115C115.934 56.5258 114.592 56.9811 112.747 56.9811H112.755ZM112.755 55.0111C113.826 55.0111 114.588 54.7521 115.035 54.2302C115.486 53.7083 115.71 52.8646 115.71 51.6912C115.71 50.5179 115.486 49.6781 115.035 49.164C114.584 48.65 113.826 48.3949 112.755 48.3949C111.684 48.3949 110.946 48.65 110.495 49.164C110.044 49.6781 109.82 50.5218 109.82 51.6912C109.82 52.8606 110.044 53.7083 110.495 54.2302C110.946 54.7521 111.696 55.0111 112.755 55.0111Z" fill="#F2EBEA"/>
<path d="M123.613 56.9811C122.915 56.9811 122.248 56.93 121.612 56.8319C120.976 56.7338 120.451 56.6122 120.039 56.467V54.497C120.525 54.6815 121.059 54.8267 121.644 54.9248C122.228 55.0229 122.785 55.0739 123.315 55.0739C124.116 55.0739 124.685 55.0033 125.03 54.8581C125.372 54.7168 125.544 54.4382 125.544 54.0222C125.544 53.724 125.442 53.4885 125.234 53.3158C125.026 53.1432 124.72 52.9862 124.312 52.8449C123.904 52.7037 123.386 52.531 122.758 52.3309C122.158 52.1307 121.636 51.9149 121.196 51.6794C120.753 51.444 120.411 51.1418 120.168 50.769C119.925 50.3962 119.803 49.9136 119.803 49.3131C119.803 48.387 120.137 47.6689 120.808 47.1627C121.479 46.6565 122.558 46.4014 124.041 46.4014C124.626 46.4014 125.183 46.4446 125.713 46.5309C126.243 46.6172 126.69 46.7232 127.063 46.8527V48.803C126.663 48.646 126.223 48.5244 125.744 48.4381C125.266 48.3517 124.818 48.3086 124.406 48.3086C123.664 48.3086 123.103 48.3713 122.727 48.5008C122.35 48.6303 122.158 48.8854 122.158 49.27C122.158 49.6546 122.354 49.9528 122.746 50.1176C123.139 50.2824 123.77 50.5061 124.642 50.7926C125.442 51.0359 126.078 51.2909 126.549 51.5617C127.02 51.8325 127.357 52.1582 127.565 52.5349C127.773 52.9117 127.875 53.4022 127.875 54.0026C127.875 55.0033 127.51 55.7489 126.784 56.2394C126.054 56.7338 124.999 56.9771 123.613 56.9771V56.9811Z" fill="#F2EBEA"/>
</svg>
