<svg width="49" height="50" viewBox="0 0 49 50" fill="none" xmlns="http://www.w3.org/2000/svg">
<path d="M35.453 11.9533C35.453 13.4576 35.4832 14.9618 35.4439 16.4661C35.4168 17.476 35.1693 18.4316 34.1072 18.8747C32.4535 19.5681 30.9417 18.5823 30.7637 16.7073C30.7245 16.2852 30.7275 15.8541 30.7486 15.4291C30.7757 14.9015 30.5434 14.7237 30.0274 14.7418C27.2995 14.8443 24.9277 15.8421 22.7369 17.4338C18.3735 20.6051 15.5008 24.934 13.0052 29.5945C11.252 32.8654 9.05823 35.8106 6.11005 38.1409C4.89095 39.1055 5.15348 40.3264 6.62908 40.857C9.43844 41.8669 12.284 42.7712 15.2201 43.341C17.7308 43.8293 20.2685 44.179 22.8214 44.2966C24.8462 44.3901 26.8619 44.6584 28.9018 44.5137C33.5549 44.182 37.5472 42.512 40.4471 38.7619C42.8038 35.7141 44.2251 32.2383 44.2734 28.3525C44.3307 23.7975 42.3934 20.1288 38.8659 17.2861C38.4827 16.9756 38.2684 16.647 38.2744 16.1466C38.2895 14.9196 38.2684 13.6897 38.2835 12.4597C38.2925 11.7091 38.4525 11.6126 39.1495 11.9623C42.1218 13.4485 44.4273 15.6672 46.2016 18.4527C47.982 21.2472 48.9205 24.304 48.9959 27.611C49.0532 30.1462 48.4799 32.579 47.6983 34.9725C46.1835 39.5939 43.3349 43.2264 39.4121 46.03C37.0795 47.697 34.3999 48.5049 31.5845 48.927C27.2904 49.5691 23.0296 49.0626 18.7658 48.6436C13.7838 48.1552 9.03107 46.7535 4.38701 44.9749C0.265 43.3983 -0.664415 37.7942 2.70622 34.9545C5.67552 32.4554 7.92362 29.4227 9.69494 26.0072C12.2267 21.1327 15.549 16.9123 19.997 13.6294C22.9572 11.4438 26.2524 10.1596 29.958 10.0451C30.5374 10.027 30.7576 9.81898 30.7516 9.24018C30.7305 7.46158 30.7516 5.67997 30.7426 3.90138C30.7305 2.17704 31.5814 1.02548 33.5459 0.959157C36.2798 0.86872 39.0137 0.883793 41.7447 0.895851C45.2873 0.913938 47.7496 2.78599 48.7454 6.07488C48.9144 6.63258 48.9868 7.21137 48.9657 7.78113C48.9174 9.11357 48.2717 9.94257 46.778 10.0993C44.1798 10.3737 41.5606 10.452 39.0982 9.28238C38.0692 8.79402 37.1338 8.17905 36.3522 7.33799C36.141 7.11189 35.9358 6.65368 35.631 6.78029C35.2719 6.928 35.4651 7.41033 35.4621 7.74194C35.4439 9.14673 35.453 10.5485 35.453 11.9533Z" fill="#F2EBEA"/>
<path d="M29.798 40.1938C29.1432 40.239 28.4703 40.1576 28.0479 39.5064C27.3961 38.5026 28.0177 37.2998 29.267 37.1189C30.1843 36.9863 31.1016 36.8958 31.9858 36.5642C34.934 35.4519 36.4035 33.2512 36.7445 30.2065C36.7868 29.8327 36.7958 29.4559 36.9256 29.1002C37.1821 28.3978 37.7403 28.03 38.5008 28.0903C39.234 28.1476 39.7621 28.5214 39.8617 29.2629C40.0156 30.4145 39.8164 31.545 39.5086 32.6634C38.3559 36.8566 34.2279 40.0852 29.798 40.1938Z" fill="#F2EBEA"/>
</svg>
